<svg width="25" height="26" viewBox="0 0 25 26" fill="none" xmlns="http://www.w3.org/2000/svg">
<path d="M12.4999 10.4111V15.2521H19.2271C18.9317 16.8089 18.0453 18.1271 16.7157 19.0134L20.7725 22.1612C23.1362 19.9795 24.4998 16.7749 24.4998 12.9681C24.4998 12.0817 24.4203 11.2294 24.2725 10.4113L12.4999 10.4111Z" fill="#4285F4"/>
<path d="M5.49441 15.0632L4.57945 15.7636L1.34076 18.2863C3.39757 22.3658 7.61317 25.184 12.4995 25.184C15.8744 25.184 18.7039 24.0704 20.7721 22.1614L16.7153 19.0136C15.6017 19.7636 14.1812 20.2182 12.4995 20.2182C9.24951 20.2182 6.48823 18.025 5.49952 15.0704L5.49441 15.0632Z" fill="#34A853"/>
<path d="M1.34081 7.08167C0.488585 8.76341 0 10.6612 0 12.6839C0 14.7066 0.488585 16.6043 1.34081 18.2861C1.34081 18.2973 5.49997 15.0588 5.49997 15.0588C5.24997 14.3088 5.10221 13.5134 5.10221 12.6837C5.10221 11.8541 5.24997 11.0587 5.49997 10.3087L1.34081 7.08167Z" fill="#FBBC05"/>
<path d="M12.4998 5.16111C14.3407 5.16111 15.977 5.79745 17.2838 7.02474L20.8633 3.44524C18.6929 1.42255 15.8748 0.183838 12.4998 0.183838C7.61343 0.183838 3.39757 2.99065 1.34076 7.08157L5.49979 10.3088C6.48837 7.35427 9.24977 5.16111 12.4998 5.16111Z" fill="#EA4335"/>
</svg>
