<svg width="31" height="23" viewBox="0 0 31 23" fill="none" xmlns="http://www.w3.org/2000/svg">
<path fill-rule="evenodd" clip-rule="evenodd" d="M12.8524 2.05895C7.93295 3.42558 4.73121 6.28186 3.93501 11.2526C3.71826 12.6047 4.02099 11.5835 4.93707 10.8975C7.9281 8.65694 13.8091 9.45025 14.6252 14.5671C16.2673 23.6268 4.95039 25.1953 1.60092 20.1918C0.821678 19.0288 0.305817 17.6712 0.119936 16.1804C-0.687159 9.69631 2.63264 3.92132 8.46455 1.20867C9.5435 0.706869 10.6806 0.314154 11.9042 0.0256767C12.517 -0.0979557 12.962 0.235367 13.1673 0.8002C13.341 1.282 13.4004 1.8135 12.8524 2.05895ZM29.0657 2.05895C24.1463 3.42558 20.9439 6.28186 20.1483 11.2526C19.9316 12.6047 20.2343 11.5835 21.1504 10.8975C24.1414 8.65694 30.0224 9.45025 30.838 14.5671C32.4812 23.6268 21.1637 25.1953 17.8143 20.1918C17.035 19.0288 16.5191 17.6712 16.3333 16.1804C15.5262 9.69631 18.846 3.92132 24.6779 1.20867C25.7568 0.706869 26.8933 0.314154 28.1176 0.0256767C28.7303 -0.0979557 29.1753 0.235367 29.3806 0.8002C29.5544 1.282 29.6137 1.8135 29.0657 2.05895Z" fill="#110736"/>
</svg>
