<svg xmlns="http://www.w3.org/2000/svg" enable-background="new 0 0 1600 1200" viewBox="0 0 1600 1200" id="testimonial"><g id="Layer_6"><path fill="#efd5ca" d="M575.9 159.7c-.4 7.1-1.1 18.1-3.1 31.5-3.1 20.4-5.6 23.8-8.4 44.1-2.5 17.9-1.3 20.7-4.2 33.6-3.7 16.5-12.4 25.5-9.4 28.3 2.7 2.6 9.7-4.4 22-5.2 11.2-.8 19.6 4 24.1 6.3 18.4 9.1 28.4 3.3 99.7 8.4 31.8 2.3 41 4.2 50.4-3.1 7.6-6 10-14 14.7-35.7 11.7-54.4 17.4-81.9 7.3-94.5-6.7-8.4-16-10.9-34.6-15.7-27.3-7.2-47.6-5.1-91.3-2.1-13.9.8-37.2 2.4-67.2 4.1z"></path><path fill="#ff4f03" stroke="#ff4f03" stroke-miterlimit="10" d="M361.1 983.2c.1.2-.8.8-2.5 1.8-.4.2-.9.5-1.4.8-.5.3-1.1.5-1.8.8-1.3.5-2.8 1.2-4.5 1.6-.8.2-1.7.5-2.7.8-.9.3-1.9.4-2.9.6-2 .5-4.2.7-6.6 1-4.7.4-9.8.3-15.2-.4-5.3-.8-10.3-2.3-14.7-4-2.1-.9-4.2-1.8-6-2.8-.9-.5-1.8-.9-2.6-1.5-.8-.5-1.6-1-2.3-1.5-1.5-.9-2.7-2-3.8-2.8-.5-.4-1.1-.8-1.5-1.2l-1.2-1.2c-1.4-1.4-2.1-2.2-1.9-2.4.2-.2 1.1.4 2.7 1.4.4.3.8.6 1.3.9.5.3 1 .6 1.6 1 1.2.7 2.4 1.6 3.9 2.3.7.4 1.5.8 2.3 1.3.8.4 1.7.8 2.6 1.2 1.8.9 3.8 1.6 5.9 2.4 4.2 1.5 9 2.8 14.1 3.5 5.1.7 10 .9 14.5.7 2.2-.2 4.4-.3 6.3-.6 1-.2 1.9-.2 2.9-.4.9-.2 1.8-.4 2.6-.5 1.7-.3 3.1-.8 4.5-1.1.7-.2 1.3-.3 1.8-.5.6-.2 1.1-.3 1.5-.5 1.9-.7 3-1 3.1-.7zM372.9 968.1c.1.2-1 .8-2.9 1.6-.5.2-1 .4-1.6.7-.6.2-1.3.4-2 .7-1.5.5-3.1 1.1-5 1.5-.9.2-1.9.5-2.9.7-1 .2-2.1.4-3.2.6-2.2.5-4.6.7-7.2 1-5.1.5-10.7.6-16.6.2-5.9-.5-11.4-1.5-16.4-2.8-2.5-.7-4.8-1.4-6.9-2.2-1.1-.4-2.1-.7-3.1-1.1-1-.4-1.9-.8-2.8-1.2-1.8-.7-3.3-1.6-4.7-2.3-.7-.4-1.3-.7-1.9-1-.6-.3-1.1-.7-1.5-1-1.8-1.2-2.7-1.9-2.6-2.1.3-.5 4.5 1.7 11.5 4.2.9.3 1.8.6 2.8 1 1 .3 2 .6 3.1.9 2.1.7 4.4 1.2 6.8 1.8 4.8 1.1 10.2 2 15.9 2.5 5.7.4 11.1.4 16.1.1 2.5-.2 4.8-.4 7-.7 1.1-.2 2.2-.3 3.2-.4 1-.2 2-.4 2.9-.5 7.3-1.2 11.8-2.7 12-2.2zM506.2 992.3c.1.4-3.8 2-10.4 4-6.6 1.9-15.9 4.4-26.5 4.9-5.3.3-10.4-.1-15-.9-1.1-.2-2.2-.5-3.3-.7-1.1-.3-2.1-.6-3.1-.9-2-.6-3.8-1.3-5.4-2.1-3.2-1.5-5.5-3.2-6.9-4.6-1.4-1.4-2-2.3-1.8-2.5.3-.4 3.4 2.6 9.7 4.9 1.6.6 3.3 1.1 5.2 1.6 1 .2 1.9.4 3 .7 1 .2 2.1.4 3.2.5 4.4.6 9.2.9 14.4.6 10.2-.5 19.4-2.6 26.1-3.9 6.5-1.2 10.7-2 10.8-1.6zM504.3 976.7c.2.4-3.2 2.4-9.1 4.8-5.9 2.3-14.4 4.8-24.1 5.9-4.8.6-9.5.8-13.7.7-1.1 0-2.1-.1-3.1-.1-1-.1-2-.1-2.9-.2-1.9-.1-3.6-.4-5.2-.7-3.2-.7-5.7-2-7.1-3.3-1.4-1.3-1.7-2.3-1.6-2.4.2-.2.9.5 2.3 1.4 1.4.8 3.7 1.7 6.7 2 1.5.2 3.2.3 5 .3h5.8c4.1-.1 8.6-.4 13.3-.9 9.4-1.1 17.8-3.1 23.8-4.8 6-1.8 9.7-3.1 9.9-2.7z"></path><path fill="#edc2ab" d="M307.4 1001.9c-3.2 15.3-4.9 27.8-5.9 36.5-2.1 18.6-2.5 33.4-9.6 53.7-1 2.7-1.8 5-2.4 6.4 2 .1 5 .6 8.2 2.2 6.6 3.4 9.3 9.3 10.1 11.2.3-1.3 1.5-5.3 5.2-8.2 5.5-4.2 11.9-2.8 12.7-2.6-.3.1-1.5.6-2.6 0-1.4-.7-2-2.8-1.1-4.9 1.7-9.8 3.5-17.8 4.9-23.6 3.7-15.3 7.6-27.1 12.7-42.7 3-9.1 5.6-16.5 7.5-21.7-6 .7-14.7 1.1-24.7-1.1-5.9-1.5-11-3.4-15-5.2zM453.3 1013.3c.4 11.2.4 20.6.4 27.4-.4 34.7-3.7 50.3-6 59.2-.5 1.8-.9 3.2-1.1 4.1 3.6-2.2 6.2-2.2 7.9-1.9 4.1.8 4.7 4.4 10.5 7.1 2.5 1.2 5.6 2.7 8.2 1.5 2.9-1.4 2.4-4.8 5.6-7.9 2.5-2.4 5.6-3.1 7.9-3.4.6-5.1 1.4-12.8 1.9-22.1.6-12.8.2-19.4.4-28.5.2-8.7 1-21.1 3.7-36.4-4 1.7-10.5 3.8-18.7 4.1-9.2.5-16.5-1.6-20.7-3.2zM285.4 543.3c-4.3 6.8-8.9 15.5-12.7 25.8-2.6 7.1-4.5 13.8-5.7 19.7 6.5 7.4 13.6 15 21.3 22.6 22.6 22.1 45.4 38.9 66.1 51.7-.4 2.1-.9 5.2-1.2 9-.4 5.6-.7 8.6.4 11.9 1.3 3.9 3.7 6.1 7.4 9.4 3.4 3.1 9.4 8.4 18.5 9.4 2.9.3 5.5 1.1 6.2 0 1.2-2.1-6.1-8.6-12.7-13.9 2.5 2.1 7.9 6 15.6 7 7 .9 12.3-1.1 18.1-3.3 4.6-1.8 7-2.7 8.2-4.9 2.3-4.1-2-8.7-5.3-16.4-6.9-16-.4-22.3-7.4-30.4-4.5-5.2-13.1-9.4-20.5-6.6-5.4 2.1-8.1 7.1-9 9-10.4-6.4-16.9-13.1-20.9-18.1-9.2-11.3-10.7-19.7-22.2-35.7-4.7-6.6-9.1-11.6-11.9-14.8 2.3-1.9 5.5-5 8.2-9.4 2.5-4.1 5.7-9.2 4.9-14.4-1.5-10.2-18.2-18.9-32-15.6-6.7 1.8-11.1 5.7-13.4 8zM440.5 439.5c3 1.9 7.5-2.3 8.5-1.1 1.6 1.9-6 16.9-19.1 19.1-11.5 1.9-20.6-7.1-24.5-11-5.9-5.9-8.7-12.2-10-16 2-2.7 4.9-7.5 6.5-14 0 0 2-8.5 0-18-3.9-18.3-26.6-18.2-38.5-36-12.4-18.6-8.7-49.4 6.5-65 2.5-2.6 5.1-4.5 39-15 40.2-12.5 49.2-15 59-10 9.2 4.7 14.6 13.6 16.3 16.4 3.6 5.9 5.7 12.2 7.4 25 2.8 21.1 4.2 32 .6 46.6-2.6 10.6-7.2 28.7-23.9 39.8-10.9 7.2-22.2 8.4-28.4 8.5-.1 2.5-.3 6.7-.6 11.9-.6 12.8-1.2 17.2 1.2 18.8zM560.5 494c3.2-.2 6.3-.3 9.5-.5-2.3-2.2-6.3-6.6-6.5-12.5-.2-5 2.3-8.7 3.5-10.5 12.7-19.3 19-29.1 22.5-37.5 5-12.1 1.7-14 7.5-24 7.9-13.5 17.6-16.4 20-17 3.3-.9 8.5-1.5 9.5.5 1.6 3-8 8.5-6.5 13.5 1.3 4.4 10.3 5.3 12.5 5.5 6.9.7 12.3-1.5 13.5-2 9.4-4 13.4-11.9 16-10.5 1 .5.5 1.8 2.5 6.5 1.1 2.5 1.3 2.3 2.5 5 1.5 3.4 2.2 6 2.5 7.5.6 2.8.9 4.2.5 5.5-.9 2.7-3.7 3.8-6 5-9.2 4.7-8.2 9.8-16 13-1.3.6-6.3 2.5-12 1.5-11.3-2.1-14.9-14.1-19-13-3.9 1-2.2 12.7-4 29-2.3 20.5-8.8 36.5-15 51.5-5.6 13.6-6.2 16.1-8.5 18.5-13 13.5-38.1 12.3-39.5 8-.3-.9.6-1.4 3-6 0 0 1.7-3.2 4-9 3.5-8.7 3.5-25.2 3.5-28z"></path><path fill="#a59379" d="M293 524.1c2.4-5.6 5.9-13.2 10.9-21.8 13.1-22.5 27.2-35.7 30.2-38.5 6.6-6.1 19.4-16.9 36.6-21.8 4.9-1.4 11-2.3 16 .6 3.8 2.2 5 5.5 7.2 9.2 4.9 8.1 13.5 15.7 21.7 18.4 10.8 3.6 25.8.4 34.6-10.3 7.3-8.8 7.2-19.2 7.1-22.5 20.1 1.3 32 7.7 39.1 13.5 7 5.6 8.1 9.5 16.7 14.1 8 4.3 14 4.7 25 10.9 3.9 2.2 7 4.3 9 5.8.1 6.4-.4 15.9-3.7 26.7-3.6 11.6-9 20.2-13 25.5-6.6-2-14-5-21.6-9.5-1.7-1-3.2-2-4.8-3-1.7.6-3.5 1.2-5.2 1.7 2.9 20.5 4.7 46.4 2.7 76.1-1.9 28.2-6.9 52.5-12.2 71.9.5.6 3.6 4.7 2.6 10.3-.8 4-3.6 6.6-5.8 8.3-9.1 7.5-16.2 13.5-25 16.7-16.3 6-40.8 3.6-64.7-9.5 8-.1 14.4-3.5 16.4-8.6 1.3-3.4.3-6.6-.5-9.5-2.6-8.7-9.4-13.7-13.5-16.7-2.5-1.9-5.9-4-10.3-5.8.9-.4 7.2-3.1 9-9.6.3-1 1.7-6.9-1.3-9.6-3.7-3.4-11.5 0-16 1.9-3.3 1.4-5.8 3-7.6 4.3-3.2-2-6.3-4-9.5-6.1 1.5-6.6 3.1-15.4 3.6-25.8.4-6.6.7-14.1-.6-23.9-2-14.5-3.7-27.1-10.9-34.5-2.1-2.1-6.6-5.9-7.1-11.5-.2-2.4.4-4.6-.6-5.1-1.6-.8-5.1 3.3-6.4 4.5-4.2 3.6-15.7 3.1-48.1-16.8z"></path><path fill="#353431" d="M384.3 364.9c4 8.6 7.9 15.1 10.7 19.4 3.8 5.8 6.6 9.2 8 15.4.2.9 2.6 11.7-1.3 14-3.9 2.3-12.3-12.1-16.7-10-2.4 1.1-1.2 5.9-3.3 6.7-.9.4-4.5.7-17.4-19.4-10.6-16.5-14.2-26.1-17.4-25.4-3.4.7-2.7 12-4 12-2.1.1-9.9-28-3.3-59.5 2.4-11.4 6.9-31.7 24.1-46.8 3.1-2.7 6-4.7 8-6 .7.9 1.5 1.8 2.2 2.7 1.8-1.2 3.7-2.4 5.5-3.7 2.3-2 5.6-4.5 9.7-7.1 14.8-9.2 28.6-11.5 32.8-12 19.8-2.5 35.5 2.6 42.1 5.4 23.8 9.7 35.9 27.8 39.9 34.4-5.8-3.8-11.5-7.5-17.3-11.3 5.8 9.2 11.5 18.4 17.3 27.6-5.3-4.5-10.5-9-15.8-13.4.4 2.8.8 5.6 1.3 8.4-17.5 4.1-29.4 1.8-37.4-1.5-5.2-2.2-12-6.1-12.7-5.1-1 1.4 13.4 9.8 11.7 15.2-1.3 4.2-11.7 5.1-18.8 3.9-5.7-.9-9.9-3.3-12.3-5-.4 2.3-1.3 5.8-3.4 9.6-1.1 1.9-7.3 13.3-17.5 14.1-5.1.4-9.9-1.8-11.9-2.8-4.3-2-5.4-3.9-9.4-4.7-1-.2-5.9-1.2-9.4 1.3-3.7 2.7-3.8 7.8-4 14-.3 10.2 2.9 17.5 4.7 21.4 2.4 5.3 4.2 9.2 8 10 2.9.9 5.8-.7 7.3-1.8z"></path><path fill="#ff4f03" d="M282.5 544c-2.6-4 2.6-14 10.3-17.1 1.1-.4 2.9-1 9.7-.6 10 .7 18.7 1.2 27.9 6.8 2.5 1.5 6 4 9.7 8-3.8 6.5-7.6 12.9-11.4 19.4-4.3-5.8-10.8-12.2-20-14.8-13.1-3.8-23.3 2.7-26.2-1.7zM391.5 445.9c3-2.1 6.1-4.2 9.1-6.3 1.9 3.3 5.9 9.3 13.1 13.7 4 2.4 13.3 8.1 21.7 4.6 4.6-2 10.1-7.3 12-13.7.7-2.4.8-5 2.9-6.3 2-1.2 4.8-.3 6.8.6.4 2.5 1.5 10.7-3.4 18.1-4.2 6.4-10.5 8.5-16 10.4-6.5 2.2-20.6 6.9-33.1-1.1-8.9-5.8-12-15.5-13.1-20zM547.3 484c-.5 6.5-1.6 14.2-3.8 22.8-2.2 8.4-4.9 15.7-7.6 21.5l15.6 2.1c2.5-4.7 5.9-12.3 7.2-22.4 1.2-9 .2-16.6-.8-21.5-3.5-.8-7.1-1.6-10.6-2.5z"></path><path fill="#d6ae92" d="M649.7 180.9c-8.2 9.6-7.9 24.5-7.4 24.6.2 0 1.3-2.6.5-3.4-1.5-1.5-9.7 1.9-13.8 8.4-2.3 3.7-1.5 5.7-3.9 7.4-2.8 1.9-5.4.3-11.3.5-3.5.1-8.8.2-12.3 2.9-3.2 2.5-3.2 6-4.4 22.6-1.1 15.4-1.6 18.2.5 19.7 4.4 3.1 11.9-5.2 20.6-1.5.6.2 2.5 1.3 6.4 3.4 4.4 2.4 7.5 4.2 7.9 4.4 5.6 3.2 22.4 12.8 36.9 7.4 4.8-1.8 7.6-4.6 11.3-8.4 7.7-7.8 10.6-16.2 14.3-27.3 4-12.1 6-18.1 3.9-21.3-5.4-8.4-23.5-.3-32.9-10.4-4.1-4.4-4.8-10.4-4.9-14.3.1-3.5.3-17.9-4.4-19.2-2.7-.6-5.6 2.8-7 4.5z"></path><path stroke="#000" stroke-miterlimit="10" d="M427.6 404.5c.1-.1.7.2 1.7.7.3.1.6.3.9.5.3.1.7.3 1.1.5.8.4 1.7.8 2.8 1.1 2.1.8 4.8 1.5 8 1.9 3.2.4 6.9.5 10.9-.1 8-1.1 17.3-4.7 24.9-12.3 7.7-7.4 13.7-18 16.8-29.9 3.1-12 3.3-24.1 2.5-34.9-.4-5.4-1-10.6-1.6-15.4-.7-4.8-1.4-9.3-2.2-13.3-1.7-8-4-14.3-6.1-18.3-2.1-4.1-3.6-6.1-3.4-6.3.1-.1 2 1.7 4.5 5.7s5.3 10.3 7.2 18.4c1 4.1 1.9 8.6 2.6 13.4.8 4.8 1.5 10 2 15.5.9 11 .9 23.4-2.4 35.9s-9.6 23.6-17.9 31.3c-2 2-4.3 3.6-6.4 5.1-1.2.7-2.2 1.5-3.4 2-.6.3-1.1.6-1.7.9-.6.3-1.2.5-1.7.8-4.6 2-9.2 3.1-13.4 3.5-4.2.4-8.1.2-11.4-.4-3.3-.6-6.1-1.5-8.2-2.5-1.1-.4-2-1-2.8-1.4-.4-.2-.7-.4-1.1-.6-.3-.2-.6-.4-.8-.6-1-.7-1.5-1.1-1.4-1.2zM444.7 437.7c-.4.1-1.1-1.2-1.6-3.3-.5-2.2-.7-5.3-.2-8.7.5-3.4 1.6-6.3 2.7-8.3 1.1-2 2.1-2.9 2.5-2.7.8.5-1.1 5.3-2 11.5-1 6.1-.5 11.3-1.4 11.5zM392.6 432.9c-.3-.4 1.6-1.9 3.6-5 2.1-3 4.1-7.7 4.8-13.3.7-5.6.3-10.8 0-14.6-.3-3.8-.4-6.2 0-6.3.4-.1 1.3 2.2 2.2 5.9.9 3.8 1.7 9.2 1 15.3-.8 6.1-3.5 11.3-6.3 14.3-2.6 3.2-5.1 4.1-5.3 3.7zM390.4 338.9c-.3 0-.4-1.3-1-3.4-.6-2.1-1.9-5.2-4.5-8.1-1.3-1.4-2.9-2.8-4.9-3.9-2-1.1-4.3-1.8-6.7-1.7-2.3.1-4.5 1.3-5.9 3.4-1.4 2.1-2 5-2.2 7.9-.1 1.5 0 3 .1 4.4.2 1.5.4 3 .6 4.4.5 2.9 1.1 5.6 1.9 8.2.7 2.6 1.6 5 2.5 7.2.9 2.2 1.9 4 3.2 5.4 2.5 2.9 5.8 3.3 7.8 2.8 2.1-.5 2.8-1.7 3-1.5.1.1 0 .4-.4.9s-1.1 1.3-2.3 1.8c-1.2.5-2.7.8-4.5.5-.9-.1-1.8-.4-2.8-.9-.9-.5-1.8-1.1-2.6-1.9-1.6-1.6-2.9-3.7-4-5.9-1.1-2.3-2-4.7-2.9-7.4-.9-2.7-1.6-5.5-2.1-8.5-.3-1.5-.5-3-.7-4.6-.2-1.6-.2-3.2-.2-4.9.2-3.3.9-6.7 2.8-9.5.9-1.4 2.2-2.6 3.7-3.4 1.5-.8 3.1-1.2 4.7-1.2 3.1-.1 5.9 1 8.1 2.3 2.3 1.3 4 3 5.4 4.7 2.7 3.5 3.7 6.9 4 9.3.4 2.3.1 3.6-.1 3.6z"></path><path stroke="#000" stroke-miterlimit="10" d="M382.8 350.5c-.5-.1-.5-1.6-.9-3.8-.4-2.2-1.2-5.3-2.9-8.2-.8-1.5-1.8-2.7-2.8-3.8-.5-.5-1-1.1-1.4-1.4-.4-.4-.8-.6-1.2-.7-.1 0-.2 0-.2-.1h-.2c.1 0 0 0 0 0-.1 0-.2 0-.4.1-.3.1-.5.3-.6.5-.1.2-.2.3-.3.5 0 .2 0 .3-.1.4-.1 0-.2.1-.4-.1s-.4-.5-.4-1 .2-1.1.7-1.6c.2-.3.5-.5 1-.7.1 0 .2-.1.4-.1l.2-.1h.7c.9 0 1.7.4 2.4.8s1.3.9 2 1.5c1.3 1.1 2.5 2.6 3.5 4.3 2 3.5 2.6 7.2 2.4 9.7-.3 2.5-1.1 3.9-1.5 3.8z"></path><path stroke="#000" stroke-miterlimit="10" d="M380 356.6c0 .2-.3.4-.8.5-.5.1-1.3-.1-2.1-.5s-1.7-1.1-2.4-2.2-1.2-2.5-1-4.1c.2-1.6.9-2.9 1.8-3.8.9-.9 1.9-1.5 2.8-1.7.9-.2 1.7-.2 2.2-.1.5.2.7.4.7.6 0 .5-.9.8-1.9 1.6-1 .7-2.1 2.1-2.3 3.7-.1 1.6.7 3.2 1.5 4.1.7 1 1.6 1.4 1.5 1.9zM446.9 335.1c-.5-.1-.2-2-1.8-4-.7-1-1.9-2-3.4-2.7-.8-.4-1.6-.6-2.5-.8-.9-.2-1.8-.2-2.7-.1-3.9.5-7.2 2.7-9.6 4.3-2.4 1.6-4 2.6-4.3 2.2-.3-.3.7-1.9 2.8-4 1.1-1.1 2.4-2.3 4.2-3.4 1.8-1.1 4-2 6.5-2.3 1.3-.1 2.6 0 3.8.2 1.2.3 2.3.8 3.2 1.3 1.9 1.1 3.3 2.7 4 4.2.7 1.6.8 3 .5 3.9-.1.8-.5 1.2-.7 1.2zM491.2 337c-.5 0-.6-1.4-1.9-2.7-.6-.6-1.6-1.3-2.7-1.7-1.1-.4-2.5-.6-3.8-.4-2.8.4-5.3 2.1-7 3.2-1.8 1.2-3 1.9-3.4 1.6-.3-.3.3-1.6 1.8-3.3.8-.9 1.8-1.8 3.1-2.7 1.3-.9 3-1.7 5-2 2.1-.3 4 .2 5.5.9 1.5.8 2.7 1.9 3.3 3.1.6 1.2.8 2.3.7 3-.1.7-.4 1-.6 1zM458.7 357.2c-.4-.3.9-2.7 2.6-6.7.2-.5.4-1 .6-1.6.2-.5.4-1.1.6-1.7.5-1.2.8-2.5 1.2-3.9.7-2.8 1.4-5.8 1.8-9.1.4-3.3.5-6.4.4-9.2-.1-1.4-.1-2.8-.3-4-.1-.6-.1-1.2-.2-1.8-.1-.6-.2-1.1-.3-1.7-.7-4.3-1.4-7-.9-7.1.4-.2 1.9 2.3 3.2 6.6.2.5.3 1.1.5 1.7.2.6.3 1.2.4 1.9.3 1.3.4 2.7.6 4.2.3 3 .3 6.4-.1 9.8-.4 3.5-1.2 6.7-2.2 9.6-.5 1.4-1 2.8-1.6 4-.3.6-.5 1.2-.8 1.8-.3.5-.6 1.1-.9 1.6-2.2 3.8-4.3 5.8-4.6 5.6zM420.5 302.5c.4.2-.2 3.2-1.9 7.8-.9 2.3-2.1 5.1-4 7.9-1.8 2.8-4.4 5.7-7.8 7.9-3.4 2.2-7.3 3.3-10.9 3-3.6-.3-6.6-1.8-8.6-3.5-2-1.8-3.1-3.7-3.5-5.1-.2-.7-.3-1.3-.3-1.7 0-.4.1-.6.2-.6.3-.1.6.7 1.2 1.8.7 1.1 1.9 2.6 3.7 3.8 1.9 1.2 4.5 2.3 7.4 2.3 2.9.1 6.1-.9 9-2.8 2.9-1.9 5.3-4.3 7.1-6.9 1.8-2.5 3.2-5 4.3-7.2 2.3-4.2 3.7-6.9 4.1-6.7z"></path><path stroke="#000" stroke-miterlimit="10" d="M406.1 416c-.1.2-2.5-.6-6.7-2.5-2.1-1-4.7-2.3-7.5-4-2.7-1.6-6.7-4.4-7.7-5.2V411.6l-.2-.1-.8-.3c-.5-.2-1.1-.4-1.6-.6l-1.5-.6-.8-.3-.6-.3c-.4-.2-.7-.4-1.1-.6-1.4-.8-2.9-1.8-4.2-2.8-5.5-4.3-9.9-10.5-13.7-17.3-2-3.4-3.8-6.9-6-10.3-1.1-1.7-2.2-3.4-3.4-5.1-.6-.8-1.2-1.7-1.9-2.4l-.6-.6-.1-.1v.2l-.1.4c-.1.6-.3 1.2-.4 1.8-.8 3.6-1.6 7.1-2.4 10.8-.2 1-.4 1.9-.6 2.9 0 .4-.1 0-.2-.2l-.2-.7-.5-1.4c-.6-1.9-1.3-3.7-1.9-5.6-.3-.9-.6-1.9-1-2.8l-.5-1.4c-.2-.5-.2-.7-.3-1-.3-1.1-.6-2.2-.9-3.4-2-8-3.2-16.1-3.2-23.9-.1-1.9 0-3.9.1-5.8s.1-3.8.3-5.7c.2-1.9.4-3.7.6-5.5l.9-5.4c.2-.9.3-1.8.5-2.6.2-.9.4-1.7.6-2.6.4-1.7.8-3.4 1.2-5l1.5-4.8c.3-.8.5-1.6.8-2.3.3-.8.6-1.5.9-2.2.6-1.5 1.2-2.9 1.7-4.4.6-1.4 1.3-2.7 1.9-4.1.3-.7.6-1.3.9-2 .3-.7.6-1.3 1-1.9l2.1-3.6c5.5-9.4 11.3-15.9 15.6-20.2 1.2-1.1 2.5-1.7 3.7-2 1.2-.3 2.2-.4 3.1-.1.9.3 1.3.9 1.4 1.3.1.4.1.6.1.6-.1 0-.1-.2-.4-.5-.2-.3-.6-.7-1.3-.8-1.4-.2-3.7.5-5.7 2.5-3.8 4.5-9.4 11.1-14.5 20.4-.6 1.2-1.3 2.4-1.9 3.6-.3.6-.6 1.2-.9 1.9-.3.6-.6 1.3-.9 2-.6 1.3-1.2 2.6-1.8 4-.5 1.4-1.1 2.8-1.6 4.3-.3.7-.5 1.5-.8 2.2-.3.7-.5 1.5-.7 2.3-.5 1.5-.9 3.1-1.4 4.7-.4 1.6-.8 3.2-1.1 4.9-.2.8-.4 1.7-.6 2.5-.2.8-.3 1.7-.4 2.6-.3 1.7-.6 3.5-.8 5.2-.2 1.8-.3 3.6-.5 5.4-.2 1.8-.2 3.7-.3 5.5 0 1.9-.2 3.7 0 5.6.1 7.6 1.2 15.4 3.2 23.2.3 1.1.6 2.2.8 3.3l.2.6.1.2.1.4.3.8.1.2v.1s0 .1 0 0l.1-.4c.2-.7.3-1.4.5-2.2.3-1.5.7-3.1 1-4.6.2-.9.4-1.8.7-2.6l.2-.7.1-.3.2.2 1 1c.6.7 1.3 1.3 1.9 2 .6.7 1.2 1.3 1.8 2 .7.9 1.4 1.7 2 2.6 1.3 1.7 2.4 3.5 3.5 5.3 2.1 3.6 4 7.1 5.9 10.5 3.7 6.7 7.8 12.7 12.8 16.8 1.2 1 2.5 1.9 3.8 2.7.3.2.7.4 1 .5l.5.3.3.1.6.3.5.2.2.1h.1V406.4c0-2.2.1-4.3.1-6.2 5.6 4.6 7.7 6.1 10.6 8 2.7 1.8 5.2 3.3 7.2 4.4 3.7 2.2 6 3.2 5.9 3.4z"></path><path stroke="#000" stroke-miterlimit="10" d="M501.2 311.6c-.2.1-1.6-2-4-5.8-.6-1-1.3-2-2-3.2-.8-1.3-1.7-2.7-2.6-4.3-2.5-4.1-5.4-8.9-8.6-14.2 3.7 3 7.6 6.3 11.8 9.7 1 .8 1.9 1.6 2.9 2.4.3.3.7.5 1 .8l1.8 1.5c-.5-1-.9-2-1.4-3-1.5-3.4-3.1-6.9-4.7-10.5 5.3 2.1 10.8 4.3 16.4 6.6.3.1.7.3 1 .4l.5.2h.1l-.1-.1-.2-.3c-.2-.4-.4-.7-.7-1.1l-.2-.3-.1-.1-.1-.3c-.4-.5-.7-1.1-1.1-1.6-.7-1.1-1.5-2.1-2.2-3.2-.8-1.1-1.6-2.1-2.4-3.2-.8-1-1.6-2.1-2.5-3.2-.9-1-1.8-2-2.7-3.1-.9-1.1-1.8-2-2.8-3-1-1-1.9-2-2.9-3-1-.9-2-1.9-3.1-2.8l-1.5-1.4-1.6-1.3c-1-.8-1.9-1.6-2.9-2.4-1-.8-2-1.5-3-2.2-2-1.5-4.1-2.8-6.1-4.1-1-.7-2.1-1.2-3.1-1.8-1.1-.6-2.1-1.2-3.1-1.7-1.1-.5-2.1-1-3.2-1.5s-2.1-1-3.2-1.4c-8.6-3.5-17.5-5.4-25.8-5.5-4.2 0-8.3.3-12.2.9-3.9.6-7.6 1.4-11.1 2.3-3.5.9-6.8 2-9.9 3.1-1.6.6-3 1.1-4.5 1.7l-2.1.9c-.3.2-.7.3-1 .5l-.5.2-.2.1h-.1c.1.1 0 0-.6-.8l.5.9c-7.8 3.9-13.4 8.1-17.2 11.1-3.7 3-5.7 4.8-5.8 4.7-.1-.1 1.5-2.2 5.1-5.5 3.6-3.3 9.1-7.8 17-12.1l-.1.1.4-.2.3-.1.5-.3c.3-.2.7-.3 1-.5.7-.3 1.4-.7 2.1-1 1.4-.7 3-1.3 4.5-1.9 3.1-1.2 6.5-2.4 10.1-3.4 3.6-1 7.4-1.9 11.4-2.6 4-.6 8.2-1 12.6-1.1 8.8 0 18 1.9 27 5.5 1.1.4 2.2.9 3.3 1.4l3.3 1.5 3.3 1.8c1.1.6 2.2 1.2 3.2 1.9 2.1 1.3 4.3 2.7 6.3 4.2 1 .8 2.1 1.5 3.1 2.3 1 .8 2 1.6 3 2.5l1.7 1.4 1.6 1.5c1.1 1 2.1 2 3.1 2.9 1 1 2 2 3 3.1 1 1 2 2 2.8 3.1.9 1.1 1.8 2.1 2.7 3.2.9 1 1.7 2.2 2.5 3.2.8 1.1 1.7 2.2 2.5 3.3.8 1.1 1.5 2.2 2.3 3.3.4.6.7 1.1 1.1 1.6l.3.4.4.7.9 1.4c1.1 1.9 2.3 3.7 3.4 5.6l.8 1.4.4.7.1.2-.2-.1-.4-.2c-1-.4-2-.8-3.1-1.2l-6-2.4c-2.4-1-4.8-2-7.1-2.9-.7-.3-1.5-.6-2.2-.9-.4-.2-.7-.3-1.1-.5.2.4.4.9.6 1.3.6 1.3 1.2 2.7 1.7 4 1.8 4.1 3.5 8.1 5.2 12-2.6-2.2-5.1-4.4-7.5-6.4-1.2-1-2.4-2-3.5-3-.5-.4-1-.8-1.4-1.2-1.5-1.4-3-2.6-4.3-3.8 1 1.9 2 3.6 2.8 5.2 1.5 2.7 2.8 5.1 3.8 6.9 1.9 3.8 3 6 2.8 6.1z"></path><path stroke="#000" stroke-miterlimit="10" d="M488.1 296.8c.1.3-4.7 2.3-13 2.9-2.1.2-4.4.2-6.8.2-2.5-.1-5.1-.3-7.9-.7-5.5-.8-11.5-2.5-17.5-5.2l1.8-2.6c.9.8 1.7 1.7 2.6 2.5 1.2 1.2 2.4 2.4 3.6 3.5l1.7 1.7c.3.3.6.6 1 1.1.4.5.7 1.2.8 1.9.1.7-.1 1.4-.4 2-.2.3-.4.6-.6.8l-.6.6c-.8.7-1.5 1-2.2 1.5-.7.4-1.4.8-2.2 1.1-.7.4-1.5.6-2.2.9-3 1-5.9 1.4-8.7 1.3-1.4 0-2.7-.2-3.9-.3-1.2-.2-2.4-.5-3.6-.8-4.5-1.3-7.6-3.5-9.5-5.2-.5-.4-.9-.8-1.2-1.2-.3-.4-.6-.7-.8-1-.4-.5-.6-.9-.5-.9.1-.1.4.1.9.5.3.2.6.4.9.7.4.3.8.6 1.3.9 2 1.3 5.1 3.1 9.3 4 1 .3 2.1.4 3.3.6 1.2.1 2.4.2 3.6.1 2.5-.1 5.1-.5 7.7-1.5.6-.2 1.3-.5 1.9-.8.6-.3 1.3-.6 1.9-1 .6-.4 1.3-.7 1.7-1.1l.3-.3.1-.1c0-.1.1-.2.1-.3 0-.1-.1-.2-.1-.3-.1-.2-.4-.4-.7-.7-.6-.6-1.2-1.1-1.8-1.7-1.2-1.2-2.4-2.3-3.6-3.5-.9-.9-1.7-1.7-2.6-2.5l-6.6-6.5 8.4 3.9c11.3 5.2 22.7 6.6 30.7 6.5 8.4-.4 13.3-1.5 13.4-1zM398.8 388.7c-.2.4-1.8-.1-3.9-1.6-1-.7-2.2-1.7-3.4-3-1.1-1.3-2.3-2.7-3.3-4.4-1-1.7-1.7-3.4-2.3-5-.5-1.6-.9-3.1-1-4.4-.3-2.5 0-4.1.4-4.2.9-.1 2 5.8 5.7 11.9 3.7 6.2 8.4 9.9 7.8 10.7zM263.9 578.7c-.2-.1.4-2.8 1.7-7.8 1.3-4.9 3.5-12 6.6-20.6 6.2-17.2 16.5-40.5 31.4-64.2 3.7-5.9 7.5-11.6 11.6-16.9 4.1-5.2 8.5-10 13.2-14 9.3-8.1 19.2-13.3 27.8-16.6 8.7-3.2 16.1-4.6 21.2-5.1 1.3-.1 2.4-.2 3.4-.3 1-.1 1.8 0 2.5-.1 1.4 0 2.1.1 2.1.2s-.7.3-2 .5c-.7.1-1.5.2-2.5.4s-2.1.4-3.3.6c-5 .9-12.2 2.6-20.5 6-8.3 3.5-17.8 8.8-26.7 16.7-8.9 7.8-16.7 18.5-24 30.3-14.7 23.5-25.3 46.4-32 63.3-3.4 8.5-5.9 15.4-7.6 20.2-1.7 4.8-2.7 7.5-2.9 7.4z"></path><ellipse cx="379.5" cy="512.5" stroke="#000" stroke-miterlimit="10" rx="9.9" ry="1.6"></ellipse><path stroke="#000" stroke-miterlimit="10" d="M320.3 573.5c-.7-.5 7.6-14.7 20-31 12.3-16.3 23.8-28.2 24.4-27.6.7.6-9.6 13.4-21.8 29.6-12.3 16.1-21.9 29.5-22.6 29zM375.9 646c-.1.2-1.4-.2-3.6-1.3s-5.2-2.9-8.6-5.6c-3.4-2.7-7.1-6.3-10.9-10.6-3.7-4.3-7.4-9.4-11-14.9-3.6-5.5-6.7-10.8-9.7-15.6-3-4.8-5.7-9-8.2-12.5-4.9-6.9-8.4-10.8-8.1-11.2.3-.3 4.5 3.1 9.9 9.8 2.7 3.3 5.7 7.5 8.8 12.2 3.1 4.7 6.4 10 9.9 15.4s7.1 10.5 10.5 14.8c3.5 4.3 6.9 8 10 10.8 6.6 5.8 11.3 8.2 11 8.7zM360.2 665.3c-.1.4-6.5-1.6-16.3-6-1.2-.6-2.5-1.1-3.8-1.8-1.3-.6-2.7-1.3-4.1-2-2.8-1.4-5.8-3-8.9-4.8-6.2-3.5-12.8-7.7-19.4-12.5-6.6-4.8-12.7-9.8-18-14.5-2.6-2.4-5.1-4.7-7.3-6.9l-3.2-3.2c-1-1.1-2-2.1-2.9-3.1-7.3-7.9-11.1-13.3-10.8-13.6.4-.3 4.9 4.5 12.5 11.9 1 .9 2 1.9 3 2.9s2.2 2 3.3 3.1c2.3 2.1 4.8 4.3 7.5 6.6 5.4 4.5 11.4 9.3 17.9 14.1 6.6 4.7 13.1 8.9 19.1 12.5 3 1.8 5.9 3.5 8.6 5 1.4.7 2.7 1.5 4 2.2 1.3.7 2.5 1.3 3.7 1.9 9.2 5.1 15.3 7.8 15.1 8.2zM391.4 701.6c.1.2-.7.7-2.2 1.3-1.6.5-3.9 1.1-6.9 1.1-3 0-6.5-.6-10.2-2-3.7-1.4-7.4-3.6-11-6.3-1.7-1.4-3.4-2.9-4.8-4.4-1.4-1.5-2.9-3.1-3.8-5.2-.9-2.1-1-4.1-1-5.8v-4.7c0-5.7.3-9.2.8-9.3.4 0 1 3.5 1.5 9.2.1 1.4.3 3 .4 4.6.1 1.6.4 3.3 1 4.7.7 1.4 1.9 2.8 3.4 4.2 1.4 1.4 3 2.8 4.6 4.1 3.3 2.6 6.8 4.7 10.1 6.1 3.3 1.5 6.5 2.2 9.2 2.5 2.7.3 4.9.1 6.5 0 1.4-.2 2.3-.3 2.4-.1z"></path><path stroke="#000" stroke-miterlimit="10" d="M415.8 686.6c.2.2-.4 1-1.6 2.3-.6.6-1.5 1.3-2.4 2.2-.5.4-1.1.7-1.7 1.2l-.9.6c-.3.2-.7.4-1 .6-2.8 1.6-6.5 2.9-10.7 3.5-4.2.6-9 .5-13.8-.8-5-1.3-9.4-3.8-12.7-6.9l2-2.2c9 8.1 14.2 14.9 13.8 15.3-.5.5-6.5-5.4-15.7-13l2-2.2c3.1 2.6 7 4.7 11.6 5.9 4.3 1.2 8.7 1.4 12.6 1 3.9-.4 7.3-1.4 10.1-2.6 5.3-2.5 8-5.3 8.4-4.9zM387.3 657c-.3-.4 2.1-2.2 5.1-5.8 1.4-1.8 3-4.1 4.2-6.8.6-1.3.9-2.7.5-3.4-.2-.4-.5-.7-1.1-.9-.6-.2-1.3-.3-2.1-.4-1.7-.1-3.4 0-5.1.1-1.6.2-3.2.4-4.7.7-3 .6-5.6 1.5-7.8 2.4-4.3 1.8-6.8 3.5-7.1 3.1-.3-.3 1.7-2.7 6.1-5.1 4.3-2.4 11-4.8 18.7-4.4 1 .1 2.1.2 3.2.6 1.1.4 2.2 1.3 2.8 2.5.6 1.2.5 2.5.3 3.5s-.6 1.9-1 2.7c-1.6 3-3.5 5.3-5.3 7-3.5 3.5-6.5 4.6-6.7 4.2zM413.5 686c-.5.1-1.2-1.9-2.5-4.8-.3-.7-.7-1.5-1.2-2.4-.4-.9-1-1.7-1.5-2.6-1.1-1.8-2.5-3.7-4.1-5.6-1.6-1.8-3.3-3.4-4.9-4.8-.8-.7-1.6-1.3-2.4-1.9-.8-.6-1.5-1.1-2.2-1.5-2.7-1.8-4.6-2.7-4.4-3.2.1-.4 2.3-.2 5.5 1.2.8.3 1.7.7 2.5 1.3.9.5 1.8 1.1 2.8 1.8 1.9 1.4 3.8 3.1 5.5 5.1 1.7 2 3.1 4.2 4.2 6.2.5 1 1 2 1.3 3 .4.9.7 1.9.9 2.7 1 3.3.9 5.4.5 5.5z"></path><path stroke="#000" stroke-miterlimit="10" d="M412.2 689.1c.1.4-2.3 1.2-6.2 1.5-1 .1-2.1.1-3.2 0-1.2 0-2.4-.1-3.7-.3-2.6-.3-5.4-.9-8.3-1.9-2.9-1-5.5-2.2-7.7-3.5-1.1-.7-2.2-1.3-3.1-2-1-.7-1.8-1.3-2.5-2-3-2.6-4.4-4.6-4.1-4.9.3-.4 2.3 1.1 5.4 3 .8.5 1.7 1 2.6 1.5.9.6 2 1.1 3.1 1.6 2.2 1.1 4.7 2.1 7.4 3 2.7.9 5.3 1.5 7.7 2 1.2.2 2.4.4 3.4.6 1.1.2 2.1.3 3 .3 3.8.6 6.1.7 6.2 1.1z"></path><ellipse cx="395.5" cy="676.4" stroke="#000" stroke-miterlimit="10" rx="18.4" ry="1.6" transform="rotate(31.34 395.442 676.351)"></ellipse><path stroke="#000" stroke-miterlimit="10" d="M369.7 584.2c-.9.3-5.3-9.4-11.3-21.1-5.9-11.7-11.2-21-10.4-21.5.7-.5 7.3 8.2 13.3 20.1 6.1 11.8 9.2 22.2 8.4 22.5zM364.1 632.1c-.9-.1 0-11 .2-24.4.3-13.4-.3-24.3.6-24.4.9-.1 2.9 10.8 2.6 24.5-.1 13.6-2.5 24.5-3.4 24.3zM503.8 520.9c-.8-.4.3-4.9 2.1-10.2 1.8-5.4 3.5-9.7 4.4-9.5.9.2.5 5-1.3 10.5s-4.4 9.6-5.2 9.2zM489.3 674.6c-.5-.1 1.5-8.6 3.9-22.5.3-1.7.6-3.5 1-5.4.3-1.9.6-3.9.9-5.9.7-4.1 1.2-8.5 1.8-13.1 1.1-9.2 2.1-19.4 2.8-30.1.6-10.7.8-20.9.7-30.2-.1-4.6-.1-9.1-.3-13.2-.1-2.1-.1-4.1-.2-6-.1-1.9-.2-3.8-.3-5.5-.8-14-1.8-22.7-1.3-22.8.2 0 .7 2.1 1.4 6 .2 1 .3 2.1.6 3.2.2 1.2.3 2.5.5 3.9.4 2.8.8 6 1.1 9.5.2 1.8.3 3.6.5 5.5s.3 3.9.4 6c.3 4.2.4 8.6.6 13.3.2 9.4.1 19.7-.5 30.5-.7 10.8-1.8 21-3.1 30.3-.7 4.6-1.4 9-2.2 13.1-.4 2-.7 4-1.1 5.9-.4 1.9-.8 3.7-1.2 5.4-.7 3.5-1.5 6.6-2.2 9.3-.4 1.4-.7 2.6-1 3.8-.3 1.2-.6 2.2-.9 3.2-.9 3.8-1.7 5.9-1.9 5.8z"></path><ellipse cx="336.4" cy="773.6" stroke="#000" stroke-miterlimit="10" rx="85.7" ry="1.6" transform="rotate(98.077 336.425 773.662)"></ellipse><path stroke="#000" stroke-miterlimit="10" d="M428 766.2c-.8-.4 3-8.4 9.4-17.1 6.3-8.8 12.6-14.9 13.2-14.3.7.6-4.4 7.6-10.6 16.2-6.2 8.7-11.2 15.7-12 15.2zM387.2 901.4c-.5-.2 2.8-7.5 6.7-19.6.5-1.5 1-3.1 1.5-4.8.5-1.7 1-3.4 1.5-5.2 1.1-3.6 2.1-7.5 3.2-11.6 2.1-8.2 4.2-17.3 6.5-26.8 2.2-9.5 4.5-18.6 6.8-26.8 1.2-4.1 2.3-8 3.6-11.6.6-1.8 1.2-3.5 1.8-5.2.6-1.6 1.2-3.2 1.8-4.7 1.1-3 2.3-5.7 3.4-8 .5-1.2 1-2.3 1.5-3.3s1-1.9 1.4-2.7c1.7-3.2 2.7-4.9 2.9-4.8.5.2-2.9 7.4-7 19.5-.5 1.5-1 3.1-1.6 4.8-.5 1.7-1 3.4-1.6 5.2-1.1 3.6-2.1 7.5-3.2 11.5-2.1 8.2-4.3 17.2-6.5 26.8-2.2 9.5-4.5 18.6-6.7 26.8-1.2 4.1-2.3 8-3.5 11.6-.6 1.8-1.1 3.5-1.7 5.2-.6 1.7-1.2 3.2-1.7 4.8-1.1 3-2.3 5.7-3.3 8.1-.5 1.2-1 2.3-1.4 3.3-.5 1-.9 1.9-1.4 2.7-1.8 3.2-2.8 4.9-3 4.8zM285.1 988.3c-.2 0-.2-2.2 0-6.2.1-1 .1-2.1.2-3.3.1-1.2.3-2.5.4-3.9.4-2.8.7-6.1 1.3-9.6.3-1.8.6-3.6 1-5.5.3-1.9.8-3.9 1.2-6 .8-4.1 2-8.5 3.1-13.1 2.4-9.1 5.5-19.1 9-29.4 3.5-10.3 7-20.1 10.2-29 3.2-8.9 6-16.9 8.3-23.6 4.6-13.5 7.2-21.9 7.7-21.8.2.1-.2 2.2-1.1 6.1-.2 1-.5 2.1-.8 3.2-.3 1.2-.7 2.5-1 3.8-.8 2.7-1.6 5.9-2.6 9.3-2 6.9-4.7 14.9-7.7 23.9-3.1 8.9-6.4 18.7-10 29-3.5 10.3-6.6 20.2-9.2 29.2-1.2 4.5-2.5 8.8-3.4 12.9-.5 2-1 4-1.4 5.9-.4 1.9-.8 3.7-1.2 5.5-.8 3.5-1.3 6.6-1.8 9.4-.3 1.4-.5 2.7-.7 3.9-.2 1.2-.3 2.3-.5 3.3-.4 3.9-.8 6-1 6zM370.1 993.8c-.9-.3 4.2-20.6 8.5-46s6.2-46.3 7.1-46.2c.4 0 .5 5.3 0 13.8s-1.8 20.2-3.9 33c-2.2 12.8-4.9 24.3-7.2 32.4-2.2 8.2-4.1 13.1-4.5 13zM364.4 1003.5c.1.2-.9.8-2.8 1.8-.5.2-1 .5-1.6.8-.6.3-1.2.5-2 .7-1.4.5-3 1.2-4.9 1.6-.9.2-1.9.5-2.9.7-1 .2-2.1.4-3.2.6-2.2.4-4.6.6-7.1.8-5 .2-10.6-.1-16.3-1.2-5.7-1.1-10.9-3-15.5-5.1-1.1-.6-2.2-1.1-3.3-1.6-1.1-.5-2-1.2-3-1.7-1.9-1.1-3.6-2.3-5.1-3.5-.4-.3-.8-.5-1.1-.8-.4-.3-.7-.6-1-.8-.6-.6-1.3-1.1-1.8-1.6-.6-.5-1.1-.9-1.5-1.4-.4-.5-.8-.9-1.2-1.3-1.4-1.6-2.1-2.5-2-2.6.2-.2 1.2.5 2.8 1.7.4.3.9.7 1.4 1 .5.4 1.1.7 1.7 1.2.6.4 1.2.9 1.9 1.3.3.2.7.5 1 .7.4.2.8.5 1.1.7 1.6 1 3.2 2.1 5.2 3 1 .5 1.9 1.1 3 1.5 1 .5 2.1 1 3.2 1.4 4.4 1.8 9.5 3.6 14.9 4.6 5.5 1.1 10.7 1.4 15.6 1.4 2.4-.1 4.7-.1 6.8-.5 1.1-.1 2.1-.2 3.1-.4s1.9-.4 2.8-.5c1.8-.3 3.4-.7 4.8-1.1.7-.2 1.4-.3 2-.5.6-.2 1.1-.3 1.6-.5 2.2-.4 3.3-.7 3.4-.4zM507.6 961.5c-.2 0-.4-3.9-.4-10.9 0-3.5 0-7.8-.1-12.8 0-5 0-10.7-.2-17 0-3.1-.1-6.4-.1-9.9-.1-3.4-.1-7-.2-10.7-.1-7.4-.4-15.3-.7-23.6-.6-16.6-1.5-34.9-2.7-54-1.3-19.1-2.8-37.3-4.4-53.9-.8-8.3-1.6-16.1-2.4-23.5-.4-3.7-.8-7.2-1.2-10.6-.4-3.4-.8-6.7-1.2-9.8-.7-6.2-1.5-11.9-2.1-16.8-.6-5-1.1-9.2-1.6-12.7-.9-7-1.3-10.9-1-10.9.2 0 1 3.8 2.3 10.7.6 3.5 1.4 7.7 2.1 12.6.8 4.9 1.7 10.6 2.6 16.8.4 3.1.9 6.4 1.4 9.8.4 3.4.9 7 1.4 10.6 1 7.3 1.8 15.2 2.7 23.5 1.7 16.6 3.4 34.8 4.7 54 1.2 19.2 2 37.5 2.4 54.1.2 8.3.3 16.2.4 23.6 0 3.7.1 7.3 0 10.7 0 3.4-.1 6.7-.1 9.9 0 6.3-.2 12-.3 17-.1 5-.3 9.3-.5 12.8-.2 7.1-.5 11-.8 11zM437.9 877.2c-.9.1-3.7-16-7.7-35.7-4-19.7-7.9-35.6-7-35.9.8-.2 6.1 15.3 10.2 35.2 4.1 19.9 5.4 36.3 4.5 36.4zM433 1004.4c-.4.1-1.6-5.9-2.7-15.6-.6-4.9-1-10.7-1.4-17.1-.3-6.5-.6-13.6-.5-21 0-7.5.3-14.6.7-21 .4-6.5 1-12.2 1.5-17.1 1.2-9.7 2.4-15.6 2.8-15.6.5.1.1 6.1-.5 15.8-.3 4.9-.6 10.6-.8 17-.2 6.4-.4 13.5-.4 20.9 0 7.4.1 14.5.3 20.9.2 6.4.5 12.2.7 17.1.4 9.6.8 15.6.3 15.7zM511.8 1006.4c.1.2-.8.9-2.6 1.9-.4.3-.9.5-1.5.9l-1.8.9c-1.3.6-2.8 1.4-4.6 2-.9.3-1.8.7-2.7 1-.9.4-2 .6-3 1-2.1.7-4.4 1.2-6.7 1.7-4.8 1-10.2 1.6-15.9 1.7-5.7 0-11.1-.6-15.9-1.5-2.4-.5-4.7-1-6.8-1.7-1-.3-2.1-.6-3-.9-.9-.3-1.9-.7-2.7-1-1.7-.6-3.3-1.4-4.6-2-.7-.3-1.3-.6-1.8-.9l-1.5-.9c-1.8-1-2.7-1.7-2.6-1.9.1-.2 1.2.1 3.1.8.5.2 1 .4 1.6.6.6.2 1.2.4 1.9.6 1.4.4 2.9 1 4.6 1.5.9.2 1.8.5 2.7.8.9.3 1.9.5 3 .7 2 .5 4.3.9 6.6 1.3 4.7.7 9.9 1.2 15.3 1.2 5.5-.1 10.7-.6 15.3-1.4 2.3-.4 4.6-.8 6.6-1.4 1-.3 2-.5 3-.7.9-.3 1.8-.5 2.7-.8 1.7-.5 3.3-1.1 4.6-1.5.7-.2 1.3-.4 1.9-.6.6-.2 1.1-.4 1.6-.6 2-.7 3.1-1 3.2-.8z"></path><ellipse cx="289.5" cy="1048.4" stroke="#000" stroke-miterlimit="10" rx="47.6" ry="1.6" transform="rotate(97.233 289.486 1048.42)"></ellipse><path stroke="#000" stroke-miterlimit="10" d="M321.8 1095.8c-.4-.1 0-4.9 1.3-12.5 1.3-7.7 3.6-18.2 6.9-29.6 3.3-11.4 6.9-21.6 9.8-28.8 2.9-7.2 5.1-11.5 5.5-11.3.9.4-5.8 18.3-12.2 41-6.5 22.6-10.3 41.4-11.3 41.2z"></path><path stroke="#000" stroke-miterlimit="10" d="M341.3 1117c-.6.6-5.8-3.4-11.2-9.3-5.4-5.9-9-11.3-8.3-11.9.7-.6 5.3 3.9 10.7 9.7 5.4 5.8 9.4 10.8 8.8 11.5zM442.3 1095.8c-.9-.1.2-17.4.6-38.7.5-21.3 0-38.7.9-38.7.9-.1 2.8 17.3 2.3 38.8-.3 21.4-2.9 38.7-3.8 38.6z"></path><ellipse cx="489.4" cy="1059.4" stroke="#000" stroke-miterlimit="10" rx="36.4" ry="1.6" transform="rotate(92.711 489.434 1059.39) scale(1.00002)"></ellipse><path stroke="#000" stroke-miterlimit="10" d="M521 1121.6c-.7.6-7.1-6-15.2-13.7-8.1-7.8-15.1-13.7-14.5-14.5.5-.7 8.5 4.2 16.7 12.1 8.3 7.9 13.7 15.6 13 16.1zM277 1143.6c-.9.1-2-7.7-.7-17.3 1.2-9.6 4.3-16.8 5.1-16.5.9.3-.7 7.7-1.9 16.9s-1.6 16.8-2.5 16.9zM364 1155.2c-.1.5-4.5 0-11.7-.3-3.6-.2-7.8-.3-12.6-.5s-10-.3-15.5-.6-10.8-.9-15.5-1.6c-2.4-.4-4.6-.8-6.7-1.3-1-.3-2.1-.5-3-.7-1-.3-1.9-.6-2.7-.8-1.8-.5-3.3-1.1-4.6-1.7-.7-.3-1.3-.5-1.9-.8-.6-.3-1.1-.5-1.5-.8-1.8-.9-2.8-1.6-2.7-1.8.2-.5 4.4 1.2 11.3 2.8l2.7.6c1 .2 2 .3 3 .5 2 .4 4.3.7 6.6 1 4.7.6 9.9 1 15.3 1.3 5.5.3 10.7.6 15.5.9 4.8.3 9.1.7 12.7 1.2 7 1 11.4 2.2 11.3 2.6zM379.3 1150.6c-.4.2-1.8-2-4.2-5.2-1.2-1.6-2.7-3.5-4.4-5.6-1.8-2-3.8-4.1-6-6.2-2.3-2.1-4.6-3.9-6.7-5.5-2.2-1.5-4.2-2.9-5.9-3.9-3.5-2.1-5.7-3.3-5.6-3.8.1-.4 2.7.1 6.6 1.7 1.9.8 4.2 2 6.6 3.5 2.4 1.5 4.8 3.4 7.2 5.6 2.4 2.2 4.4 4.5 6.2 6.7 1.7 2.2 3.1 4.4 4 6.2 1.9 3.7 2.5 6.3 2.2 6.5zM439.6 1145.4c-.4.1-1.2-1.4-1.9-3.9s-1.2-6.1-1.2-10c0-4 .5-7.5 1.2-10s1.4-4 1.8-3.9c.9.2.2 6.4.3 13.9 0 7.5.7 13.7-.2 13.9zM543.4 1151.1c0 .4-5.5 1.4-14.5 2.2-9 .9-21.6 1.5-35.4 1.3-13.8-.2-26.4-1.1-35.4-2.2s-14.5-2.1-14.5-2.6c.1-.5 5.6-.2 14.7.3 9 .5 21.5 1 35.2 1.2 13.8.2 26.2-.1 35.2-.4 9.1-.2 14.7-.3 14.7.2zM548.9 1144.3c-.4.2-1.5-1.3-3.2-3.4-.9-1.1-2-2.3-3.2-3.6-1.3-1.3-2.8-2.6-4.5-3.8-1.7-1.2-3.4-2.2-5-3.1-1.6-.8-3.1-1.5-4.4-2-2.6-1-4.3-1.5-4.2-2 0-.4 1.9-.7 4.9-.2 1.5.2 3.2.7 5 1.5 1.8.8 3.8 1.8 5.6 3.2 1.9 1.4 3.4 2.9 4.7 4.4 1.3 1.5 2.3 3 3 4.3 1.4 2.7 1.7 4.5 1.3 4.7zM515.1 467.1c-.6.8-12.6-9.5-29.9-17.9-17.2-8.5-32.6-11.7-32.4-12.7.1-.4 4-.1 10.3 1.3 1.6.4 3.3.8 5.1 1.3 1.8.5 3.7 1.1 5.7 1.8 4 1.4 8.3 3.2 12.7 5.3 4.4 2.2 8.4 4.5 12 6.8 1.8 1.2 3.4 2.3 5 3.4 1.5 1.1 2.9 2.2 4.1 3.2 5 4.2 7.7 7.2 7.4 7.5zM569.3 493.1c-.5.8-10.5-4.9-23.1-11.3-12.6-6.4-23.1-11-22.8-11.9.3-.8 11.5 2.5 24.2 9 12.8 6.4 22.1 13.4 21.7 14.2zM584.1 532.2c.2.3-3.7 2.8-10.6 5-3.5 1.1-7.8 2-12.6 2.5s-10.2.4-15.7-.4-10.7-2.2-15.2-3.7c-4.6-1.5-8.6-3-11.9-4.5-6.6-2.9-10.4-5.2-10.3-5.6.2-.4 4.3 1.2 11.1 3.5 3.4 1.1 7.4 2.5 11.9 3.7 4.5 1.3 9.5 2.6 14.8 3.4 10.6 1.6 20.4.4 27.3-1.1 6.9-1.6 11-3.3 11.2-2.8zM591.2 431.3c.7.6-7.4 11.7-15.9 26.3-2.1 3.7-4.1 7.2-5.8 10.4-1.7 3.2-3.3 6.1-4.3 8.6-2.1 5-1.4 8.4-1.9 8.5-.2 0-.7-.8-.9-2.4-.3-1.6-.1-4.1.6-6.9.8-2.8 2.2-5.9 3.8-9.2 1.6-3.3 3.5-7 5.7-10.7 8.6-14.8 18-25.2 18.7-24.6zM615.1 434.7c.4 0 .4 5.5-.5 14.3-.4 4.4-1.1 9.6-2.1 15.4-1 5.8-2.3 12.1-4 18.6-1.7 6.6-3.5 12.7-5.3 18.3-1.9 5.6-3.7 10.5-5.4 14.6-3.4 8.2-6 13-6.4 12.8-.9-.4 7.5-20.5 14-46.5 6.6-25.9 8.7-47.6 9.7-47.5z"></path><path stroke="#000" stroke-miterlimit="10" d="M664.1 429.3c.3.3-2 3.1-6.4 6.8-2.2 1.9-5 4-8.2 6-1.6 1-3.4 2.2-5.5 2.9-1.1.4-2.3.7-3.5.7-1.3.1-2.6-.1-3.8-.5-1.5-.5-2.7-1.2-3.9-1.8-1.1-.7-2.2-1.3-3.3-2-2.1-1.3-4.1-2.6-6-3.8-1.9-1.2-3.6-2.4-5.1-3.5-.4-.3-.8-.5-1.1-.8-.2-.1-.4-.3-.5-.4-.2-.1-.4-.3-.4-.3-.4-.3-.7-.6-1-.9-.1 0-.1-.1-.2-.1l-.1.1c-.1.1-.1.2-.2.3l-.3.6c-.2.4-.3.8-.3 1.3-.1.9-.1 1.4-.3 1.5-.2 0-.5-.4-.7-1.4-.1-.5-.2-1.3 0-2.2.1-.5.2-.9.5-1.4.1-.2.2-.5.3-.8.1-.1.1-.3.2-.4.1-.1.2-.1.3-.2.9.5 1.8 1.1 2.9 1.7.7.4 1.5.9 2.4 1.4 1.6.9 3.4 2 5.3 3.1s4 2.3 6.1 3.6c1.1.6 2.2 1.3 3.3 1.9 1.1.6 2.2 1.2 3.3 1.5 3.4 1.2 7.1-.8 10.3-2.6 3.2-1.9 6.1-3.7 8.4-5.3 4.3-3.2 7.1-5.4 7.5-5zM617.4 408.6c-.4-.3 1.7-4.2 5.5-10.3l1.5-2.4c.3-.4.5-.8.8-1.3.2-.4.4-.8.4-.9.1-.4-.2-.8-.6-.8-.3-.1-.8-.1-1.2-.1-.2 0-.5 0-.7.1-.3 0-.6.1-.9.1-4.6.8-9.7 1.7-13.9 4.4-4.2 2.7-6.8 7.2-8.8 11.3-2 4.2-3.8 8.1-5.4 11.3-3.2 6.4-5.3 10.3-5.7 10.1-.4-.2 1-4.4 3.6-11 1.3-3.3 2.9-7.2 4.8-11.6 1-2.2 2.2-4.5 3.7-6.7 1.6-2.2 3.5-4.4 6-6 2.5-1.6 5.2-2.6 7.8-3.3 2.6-.7 5.1-1 7.5-1.4.3 0 .6-.1.9-.1.3 0 .7-.1 1-.1.7 0 1.4 0 2.1.2.9.3 1.7.8 2.1 1.6.4.8.5 1.7.3 2.5-.3.9-.6 1.3-.9 1.8l-.9 1.2c-.6.8-1.1 1.6-1.6 2.3-4.2 5.9-7 9.4-7.4 9.1zM662.9 399.2c.2.4-1.8 2.1-5.2 4.7-1.7 1.3-3.8 2.7-6.1 4.3-1.2.8-2.4 1.6-3.7 2.5-1.3.8-2.8 1.7-4.6 2.3-1.8.6-3.7.7-5.3.5-1.7-.2-3.1-.5-4.5-.8-2.8-.7-5.3-1.5-7.3-2.3-4-1.6-6.3-3.1-6.1-3.5.2-.4 2.7.3 6.8 1.3 2 .5 4.5 1 7.2 1.5s5.7 1 8.2.1c2.7-.9 5.2-2.8 7.6-4.2 2.4-1.4 4.6-2.7 6.5-3.7 3.8-2 6.2-3.1 6.5-2.7z"></path><path stroke="#000" stroke-miterlimit="10" d="M663.4 430.3c-.3-.3.9-2.6 3.3-6.1.3-.4.6-.9.9-1.4.3-.5.7-1 .9-1.4.2-.5.4-.9.4-1.2 0-.3-.1-.6-.4-1-.5-.7-1.5-1.2-2.5-1.2-1.1 0-2.4.4-3.8 1.1-11.7 5.5-21.5 9.4-21.9 8.6-.4-.8 8.8-6 20.5-11.5 1.5-.7 3.3-1.4 5.2-1.3 2 .1 3.9 1.1 5 2.7.5.8.8 1.9.7 2.9-.1 1-.5 1.8-.9 2.4-.4.6-.8 1.1-1.2 1.5-.4.4-.8.9-1.1 1.3-2.8 3.1-4.7 4.9-5.1 4.6zM667.7 409.4c-.2.1-.6-.1-1.2-.4-.6-.2-1.4-.4-2.5-.2s-2.5.6-3.9 1.3c-1.5.8-3.2 1.6-5 2.5-7.2 3.5-13.2 6-13.6 5.2-.4-.8 4.9-4.6 12.2-8.2 1.8-.9 3.5-1.7 5.3-2.3 1.8-.7 3.5-1 5-.9 1.5.1 2.8.8 3.4 1.5.5.9.5 1.4.3 1.5z"></path><path stroke="#000" stroke-miterlimit="10" d="M663.3 415.4c-.3-.3-.3-.9-.2-1.5.1-.6.3-1.3.7-2 .3-.7.7-1.3 1.1-1.8.4-.5.8-.8 1.3-.8.4 0 .8.5 1 1.2.2.7.1 1.8-.4 2.8-.5 1-1.2 1.7-1.8 2.1-.8.4-1.4.3-1.7 0zM661.5 406.4c-.2-.4.2-1 .3-1.6.2-.6.3-1.5.2-2.1-.1-.6-.6-1.3-1.1-1.8-.5-.5-1-.8-1-1.3-.1-.4.6-1 1.8-.9.6.1 1.3.3 2 .8s1.3 1.3 1.5 2.4c.2 1 .1 2-.3 2.8-.4.8-.9 1.3-1.4 1.6-1 .7-1.9.5-2 .1zM665.9 427c0 .2-.4.5-1.3.4-.8-.1-1.9-.6-3-1s-1.8-.4-3.1.4c-.6.3-1.3.9-2.1 1.4l-2.4 1.5c-6.6 4.1-12.3 6.8-12.8 6-.5-.8 4.5-4.7 11.1-8.8l2.4-1.5c.8-.5 1.5-.9 2.4-1.3.9-.4 1.9-.7 3-.6 1.1.1 1.9.5 2.5.9 1.2.8 1.8 1.5 2.3 1.9.7.3 1 .5 1 .7zM635.4 430.8c-.5.7-5.2-1.7-11-4.7-5.8-2.9-10.6-5.3-10.3-6.1.3-.8 5.7.2 11.7 3.2 6.1 3.1 10.1 6.9 9.6 7.6zM566.7 309c-.1.5-3.8-.4-9.6 1-2.9.7-6.2 2-9.8 3.9l-2.7 1.5c-.5.3-.9.6-1.4.8-.7.4-1.3.8-2 1.2-1.7 1.1-3.4 2.3-5.2 3.5-1.8 1.2-3.7 2.5-5.5 3.8l.1-.2.1-.2.3-.5.5-1c.3-.6.7-1.3 1-1.9.7-1.3 1.4-2.6 2.1-4 .7-1.3 1.4-2.7 2.2-4.1.5-.9 1-1.9 1.5-2.9 2.8-5.5 5.4-10.7 7.4-15.6s3.5-9.4 4.6-13.3c1.1-3.9 1.6-7.1 2-9.3.3-2.2.6-3.5.8-3.5.2 0 .4 1.3.4 3.6s-.2 5.6-1 9.7c-.8 4-2.1 8.8-4 13.9s-4.4 10.5-7.3 16c-.3.6-.6 1.2-1 1.8l-.3.5-.3.6-.2.3-.1.2v.1s0 .1 0 0l1.5-.9.2-.1.7-.4c.5-.3 1-.6 1.5-.8 1-.5 2-1 2.9-1.5 3.8-1.8 7.5-3 10.7-3.5 3.2-.5 5.7-.3 7.4 0 1.6.7 2.5 1.1 2.5 1.3zM569.5 150.8c.4 0 .5 6.4 0 16.7-.5 10.3-1.7 24.4-3.7 40-2.1 15.6-4.6 29.5-6.7 39.6-2.2 10.1-3.9 16.2-4.3 16.1-.5-.1.5-6.4 2-16.5 1.6-10.1 3.7-24.1 5.8-39.6 2-15.5 3.6-29.6 4.7-39.8 1-10.2 1.7-16.5 2.2-16.5zM752 308.7c0 .2-2.3.8-6.5 1.7-1.1.2-2.2.5-3.5.7-1.3.2-2.7.5-4.2.7-3 .5-6.5 1.1-10.3 1.5-1.9.2-3.9.5-6 .7-2.1.2-4.3.4-6.6.6-4.5.5-9.4.7-14.5 1-10.2.4-21.5.5-33.3-.1-11.8-.6-23-1.8-33.2-3.3-5.1-.8-9.9-1.5-14.3-2.4-2.2-.4-4.4-.8-6.5-1.3-2.1-.5-4-.9-5.9-1.3-3.8-.8-7.2-1.8-10.1-2.5-1.5-.4-2.9-.8-4.1-1.1-1.3-.4-2.4-.7-3.4-1.1-4.1-1.3-6.4-2.1-6.3-2.3.1-.2 2.4.2 6.6 1.1 1.1.2 2.2.5 3.5.8 1.3.3 2.7.6 4.2.9 3 .6 6.4 1.4 10.2 2.1 1.9.4 3.9.7 5.9 1.1 2.1.4 4.2.7 6.5 1.1 4.5.8 9.2 1.4 14.3 2.1 10.1 1.3 21.2 2.4 32.9 3 11.7.6 22.9.6 33.1.4 5.1-.2 9.9-.3 14.4-.7 2.3-.2 4.4-.2 6.5-.4 2.1-.2 4.1-.3 6-.5 3.8-.3 7.3-.7 10.3-1 1.5-.2 2.9-.3 4.2-.4 1.3-.2 2.5-.3 3.6-.4 4.1-.7 6.5-.9 6.5-.7zM766.2 293.4c-.5-.1.3-7.4 1.6-19.1 1.4-11.7 3.4-27.9 5.6-45.8 2.2-17.9 4.1-34.1 5.5-45.8 1.5-11.7 2.5-19 3-18.9.4 0 .2 7.4-.7 19.2-.9 11.8-2.4 28.1-4.6 46-2.2 17.9-4.5 34.1-6.5 45.8-2 11.5-3.5 18.7-3.9 18.6zM783 153c0 .2-2.9.2-8.1 0-5.2-.2-12.7-.6-22-1s-20.4-.8-32.7-1.2c-12.3-.3-25.8-.6-40-.6s-27.7.2-40 .4c-12.3.3-23.4.7-32.7 1.1-9.3.4-16.8.7-22 .9-5.2.2-8.1.2-8.1 0s2.8-.7 8-1.2c2.6-.3 5.8-.6 9.5-.9 3.7-.3 7.9-.7 12.5-1 9.3-.7 20.4-1.3 32.7-1.8 12.3-.4 25.9-.7 40.1-.7 14.2 0 27.8.4 40.1.9s23.4 1.2 32.7 1.9c4.6.3 8.8.7 12.5 1.1 3.7.3 6.9.7 9.4 1 5.3.4 8.2.9 8.1 1.1zM597.2 260.1c-.4.1-1.2-1.9-1.7-5.3-.6-3.3-.9-8-.6-13.2.3-5.2 1.2-9.8 2.2-13.1 1-3.3 1.9-5.2 2.3-5 .9.3-.7 8.3-1.3 18.3-.6 10 .1 18.2-.9 18.3zM625.6 221.4c-.5.8-5.4-1.6-11.8-1.9-6.4-.4-11.6 1.3-12 .5-.2-.4.9-1.4 3.1-2.3 1.1-.5 2.4-.9 4-1.1 1.5-.3 3.3-.4 5.1-.3 1.8.1 3.5.4 5 .9s2.8 1 3.8 1.6c2.1 1.1 3 2.2 2.8 2.6zM623.4 263.4c-.1.9-5.8 1.2-12.8 1.4-7 .2-12.8.2-12.9-.7-.1-.9 5.6-2.4 12.8-2.5 7.2-.3 13 .9 12.9 1.8z"></path><ellipse cx="624.7" cy="245.1" stroke="#000" stroke-miterlimit="10" rx="28.9" ry="1.6" transform="matrix(.01716 .9999 -.9999 .01716 858.981 -383.708)"></ellipse><ellipse cx="634.6" cy="209.1" stroke="#000" stroke-miterlimit="10" rx="8.9" ry="1.6" transform="rotate(-24.943 634.64 209.107)"></ellipse><path stroke="#000" stroke-miterlimit="10" d="M651.8 175.1c.8.5-2.5 7.6-5.3 16.7s-4.1 16.9-5 16.8c-.4 0-.7-2.1-.5-5.3.2-3.2.9-7.7 2.4-12.4s3.4-8.8 5-11.6c1.7-2.9 3-4.4 3.4-4.2zM672.9 204.3c-.9.3-4.2-6.9-8.7-15.6-2.2-4.3-4.3-8.3-5.7-11.1-.2-.4-.3-.7-.5-1l-.1-.2-.1-.1c0-.1-.1-.2-.2-.3-.3-.4-.7-.6-1-.8-.2-.2-.6-.1-.7 0-.1.1-.1.2-.2.1 0-.1-.1-.4-.1-.7.1-.3.5-.6 1.1-.6.6 0 1.3.2 2 .7.2.1.3.3.5.4l.2.3.2.2c.2.3.5.6.7.9 2 2.6 4.4 6.4 6.7 10.8 4.7 8.8 6.8 16.7 5.9 17zM695.1 253.6c-.4-.2 1.4-4.1 3.8-10.5 1.2-3.2 2.5-7 3.8-11.3.6-2.2 1.2-4.4 1.8-6.8.6-2.4 1.1-4.8.8-6.9-.3-2.1-1.7-3.8-3.5-5-1.9-1.2-4-2-6.1-2.7-4.3-1.3-8.2-2.6-11.5-3.7-6.5-2.2-10.5-3.8-10.4-4.2.1-.4 4.3.4 11 2 3.4.8 7.3 1.8 11.7 3 2.2.6 4.6 1.4 7 2.9 1.2.7 2.3 1.7 3.2 2.9.9 1.2 1.6 2.7 1.8 4.3.2 1.5.1 3-.1 4.4-.2 1.4-.5 2.6-.8 3.8-.6 2.4-1.3 4.8-2 7-1.4 4.4-3 8.2-4.5 11.4-3.1 6.1-5.6 9.6-6 9.4zM680.2 276.4c0 .4-2.9 1.2-7.9 1.5-2.5.2-5.4.3-8.7.2-3.3-.1-6.9-.4-10.6-1-3.7-.6-7.2-1.4-10.4-2.2-3.1-.9-5.9-1.8-8.2-2.7-4.6-1.8-7.2-3.4-7-3.8.4-.9 11.6 3.4 26.2 5.6 14.5 2.2 26.5 1.5 26.6 2.4z"></path><path stroke="#000" stroke-miterlimit="10" d="M681.3 277.2c-.7-.5 2.4-6 6.1-12.8 3.8-6.7 6.8-12.3 7.7-11.9.8.3-.9 6.6-4.8 13.5s-8.3 11.7-9 11.2zM447.2 440.9c.2 0 .4 1 .2 2.7-.2 1.7-.9 4.3-2.6 7-1.7 2.7-4.5 5.6-8.5 7.3-3.9 1.7-8.9 2.3-13.7 1-2.4-.7-4.6-1.8-6.5-3.1-1.9-1.3-3.6-2.6-5.1-3.9-3-2.6-5.7-5.1-7.6-7.6-1.9-2.5-3-4.8-3.5-6.5-.5-1.7-.4-2.7-.2-2.7.5-.1 1.4 3.5 5.5 7.7 2 2.1 4.7 4.4 7.8 6.8 3.1 2.4 6.5 5.1 10.5 6.2 4.1 1.1 8.3.7 11.7-.6 3.4-1.3 6-3.6 7.7-5.9 1.8-2.2 2.7-4.4 3.3-5.9.5-1.7.7-2.6 1-2.5z"></path><path stroke="#000" stroke-miterlimit="10" d="M454.2 459.6c.1.2-.8.9-2.5 2.1-1.7 1.2-4.3 2.8-7.6 4.5-3.3 1.7-7.5 3.6-12.4 4.9-4.9 1.2-10.7 1.7-16.6.3-2.9-.7-5.7-1.9-8-3.4-2.4-1.5-4.5-3.2-6.3-5-3.6-3.5-6.5-7.1-8.5-10.2-4.2-6.4-5.5-10.9-5.1-11 .5-.2 2.5 3.9 7 9.7 2.2 2.9 5.1 6.1 8.7 9.3 3.6 3.2 7.9 6.2 13.1 7.4 5.2 1.3 10.5.9 15.1 0 4.6-1 8.7-2.6 12.1-4 3.4-1.4 6.1-2.7 8-3.6 1.7-.8 2.9-1.2 3-1zM328.9 560.3c-.4.4-2.7-1.6-6.9-4.3-.5-.3-1.1-.7-1.6-1-.6-.4-1.2-.7-1.8-1-1.2-.7-2.6-1.4-4.1-2.1-2.9-1.4-6.2-2.7-9.8-3.7-3.6-1-7.1-1.7-10.3-2.1-1.6-.1-3.1-.3-4.6-.4-.7 0-1.4-.1-2.1-.1h-1.9c-4.9.1-8 .5-8.1 0-.1-.4 2.9-1.6 8-2.3.6-.1 1.3-.1 2-.2s1.4-.1 2.2-.1c1.5-.1 3.1 0 4.8.1 3.4.3 7.1.8 10.9 1.9 3.8 1.1 7.2 2.6 10.3 4.2 1.5.8 2.9 1.6 4.1 2.5l1.8 1.2c.6.4 1.1.9 1.6 1.3 4 3.2 5.8 5.8 5.5 6.1zM327.5 532.3c-.4.9-7.5-1.6-16.6-3.1-9.1-1.6-16.6-1.6-16.7-2.5 0-.4 1.9-1 5-1.3 3.1-.3 7.5-.2 12.2.6 4.7.8 8.9 2.2 11.8 3.4 2.9 1.3 4.5 2.5 4.3 2.9zM550.3 533.7c-.4-.3.7-2.6 2.2-6.5.4-1 .8-2 1.2-3.2.4-1.1.8-2.4 1.2-3.7.7-2.6 1.4-5.6 1.9-8.7.5-3.1.7-6.1.8-8.8 0-1.4.1-2.7 0-3.9 0-1.2-.1-2.4-.1-3.4-.3-4.2-.6-6.8-.2-6.9.4-.1 1.6 2.3 2.4 6.6.2 1.1.4 2.2.6 3.5.2 1.3.2 2.6.3 4.1.1 2.9-.1 6.1-.6 9.3-.5 3.3-1.3 6.4-2.3 9.1-.5 1.3-1 2.6-1.5 3.8-.5 1.2-1.1 2.2-1.6 3.2-2.2 3.7-4 5.7-4.3 5.5zM533.8 530.1c-.7-.6 3-6 5.5-13.6s2.7-14.2 3.7-14.2c.4 0 1 1.7 1.1 4.5.1 2.8-.3 6.7-1.6 10.8-1.3 4.1-3.3 7.5-5.1 9.6-1.8 2.2-3.3 3.2-3.6 2.9zM428.5 362.8c.3.9-2 2.5-4.7 4.4-2.7 1.9-4.9 3.7-5.7 3.1-.3-.3-.2-1.1.4-2.2.6-1.1 1.8-2.4 3.3-3.5 1.5-1.1 3.1-1.8 4.4-2.1 1.3-.2 2.2-.1 2.3.3zM464 376.1c.2.4-1.8 2-5.7 3.3-3.8 1.3-9.7 2.2-15.9.7-6.2-1.4-11.1-4.7-13.9-7.6-2.9-2.9-4-5.2-3.6-5.5.4-.3 2.1 1.5 5.1 3.7 3 2.3 7.6 4.9 13.2 6.2 5.6 1.3 10.8.9 14.6.2 3.7-.6 6-1.4 6.2-1zM450.4 313.6c-.6.8-4.3-1.2-9.2-1.8-4.9-.8-9 0-9.3-.8-.1-.4.8-1.2 2.6-1.8 1.8-.6 4.4-1 7.2-.6 2.9.4 5.3 1.5 6.8 2.6s2.2 2.1 1.9 2.4zM488.2 310.8c-.2.4-1.2.3-2.6.3-1.4-.1-3.3-.1-5.4.2-2.1.3-3.9.9-5.2 1.4-1.3.5-2.3.9-2.6.5-.3-.3.1-1.3 1.3-2.5s3.4-2.3 5.9-2.7c2.6-.4 5 .1 6.5.8 1.6.7 2.3 1.6 2.1 2zM481.6 691.9c.1.1-.6 1.2-2.2 2.8-1.6 1.6-4.1 3.8-7.7 5.9-3.5 2.1-8 4.2-13.2 5.7-5.2 1.5-11.2 2.4-17.4 2.5-6.2.1-12.2-.6-17.4-1.5-5.3-1-9.9-2.2-13.8-3.4-3.9-1.2-7-2.4-8.9-3.6-2-1.2-2.9-2.1-2.8-2.2.1-.2 1.3.3 3.3 1.1 2.1.8 5.1 1.6 9 2.5 7.7 1.8 18.5 4.1 30.5 3.9 6-.1 11.7-.8 16.7-2.1s9.4-3 12.9-4.8c3.5-1.8 6.2-3.6 8-4.8 1.8-1.4 2.8-2.1 3-2zM485.8 691.1c-.3-.4.3-1.3 1.1-2.7.4-.7.8-1.5 1.2-2.4.4-.9.8-2 1.1-3.1.3-1.1.5-2.2.6-3.2.1-1 .2-1.9.2-2.7 0-1.6 0-2.7.4-2.8.4-.2 1.2.7 1.8 2.5.3.9.5 2 .6 3.2 0 1.2-.1 2.6-.5 4s-1 2.6-1.6 3.7c-.7 1-1.4 1.9-2.1 2.5-1.4 1.1-2.6 1.4-2.8 1zM325.4 1102.1c-.1.2-.9-.1-2.3-.4-1.3-.2-3.4-.3-5.6.6-2.2.8-4.6 2.6-5.5 5.4-.1.3-.2.8-.5 1.5s-.8 1.3-1.4 1.7c-.6.4-1.4.5-2.1.3-.4-.1-.7-.2-1.1-.5-.3-.2-.7-.5-.9-.6-1.7-1.2-3.2-2.6-4.6-4.1-1.4-1.5-2.7-2.9-4-3.9-1.3-1.1-2.8-1.9-4.2-2.4-1.4-.5-2.8-.6-4-.3-1.2.3-2.2 1-3 1.8-1.6 1.7-2.4 3.7-3 5-.6 1.3-1 2.1-1.2 2-.2-.1-.2-.9 0-2.4.1-.7.3-1.6.7-2.7.4-1 .9-2.2 1.8-3.4.9-1.2 2.2-2.3 4-2.9 1.8-.6 3.8-.5 5.7 0 1.9.6 3.7 1.5 5.3 2.8 1.6 1.3 3 2.7 4.4 4.2 1.4 1.4 2.7 2.7 4.1 3.7.2.2.2.2.3.2 0 0 .1.1.2.1.1.1.2.1.3 0 .1-.1.2-.2.2-.3 0 0 .2-.4.4-.9.7-1.9 2-3.4 3.4-4.5s2.9-1.7 4.3-2.1c2.8-.7 5.2-.2 6.6.4 1.3.8 1.8 1.5 1.7 1.7zM496 1100.5c0 .2-1 .3-2.7.2-1.7 0-4.2-.2-7.1.3-1.4.3-2.9.7-4.3 1.5s-2.7 2-3.6 3.4c-.4.7-.7 1.5-.8 2.4-.1.4-.1.9-.1 1.5 0 .1 0 .4-.1.6 0 .2-.1.5-.2.7-.1.4-.4.9-.7 1.2-.6.7-1.6 1.1-2.5 1-.5 0-1.1-.2-1.3-.2-.3-.1-.6-.1-.9-.2-1.2-.3-2.4-.8-3.5-1.3-4.5-2.1-8.1-4.9-11.6-6.4-3.5-1.6-7-2.1-9.6-1.4-1.3.4-2.4.9-3.3 1.6-.9.7-1.5 1.5-1.9 2.1-.9 1.4-1.1 2.3-1.3 2.3-.2 0-.4-1.1.2-2.8.3-.9.9-1.9 1.8-2.9s2.2-1.9 3.8-2.5c1.6-.6 3.5-.8 5.5-.7 2 .2 4 .7 6 1.4 4.1 1.6 7.7 4.3 11.8 6.2 1 .5 2 .8 3 1.1.5.1 1.2.3 1.1.3.1 0 .3 0 .4-.1 0-.1.1-.1.1-.2V1109.3c0-.4.1-1 .2-1.7.2-1.3.7-2.5 1.3-3.5 2.7-4 7-5.4 10.2-5.6 3.3-.2 5.8.4 7.5.8 1.7.6 2.6 1 2.6 1.2zM508.3 1125.8c0 .2-.4.4-1.1.5-.8.1-1.9.2-3.4-.5-.7-.3-1.6-1.1-1.9-2.2-.3-1.1-.1-2.2.1-3.1.3-1 .6-1.9.8-2.6 0-.1.1-.2.1-.3v-.4c0-.1-.1-.3-.2-.3-.1-.1-.2-.1-.3-.1H502.1c-.2 0-.3.1-.5.1-.7.2-1.7.7-2.5 1.1-1.3.6-2.6 1.1-3.8 1.7l-2.7 1.2-1.5.6c-.5.2-.8.3-1.2.4-.4.1-.8.2-1.2.4l-.6.2-.3.1c-.1 0 0-.1 0-.1v-.2c.2-.9.4-1.7.6-2.5.3-1.5.9-3 1.6-4.3.1-.1.2-.3.3-.4l.2-.3c.1-.2.3-.4.4-.6.3-.4.5-.7.8-1 .5-.6 1-1 1.4-1.4.9-.7 1.5-.9 1.6-.7.2.2-.1.7-.6 1.6-.3.4-.6 1-.9 1.6-.2.3-.3.6-.5 1-.1.2-.2.4-.2.6l-.1.3c0 .1 0 .1-.1.2-.1.4-.2.8-.2 1.1v.5s0 .1 0 0h.1l.2-.1.3-.2c.2-.1.3-.2.5-.3l.2-.1h.1l.1-.1.4-.2c1.2-.6 2.5-1.1 3.7-1.7.9-.4 1.7-.8 2.8-1.2.3-.1.6-.2.9-.2.2 0 .3-.1.5-.1h.6c.8 0 1.6.3 2.2.7.7.6 1.2 1.4 1.3 2.2.1.4 0 .9 0 1.3 0 .2-.1.3-.1.5s-.1.3-.1.4c-.4 1.1-.8 1.9-1.1 2.6-.6 1.5-.5 2.2.2 2.9.8.6 1.8.9 2.4 1.1.6-.1 1 .1 1 .3zM342.8 1132.6c0 .2-.9.7-2.7.9-.9.1-2 .2-3.3.1-.6 0-1.3-.1-2.1-.2-.4-.1-.8-.1-1.2-.3-.4-.1-1-.4-1.5-.9-.6-.6-1-1.6-1-2.6 0-.9.3-1.7.7-2.4.2-.3.4-.7.6-1 .1-.2.2-.3.4-.5.1-.2.2-.3.3-.4.1-.1.2-.3.2-.5 0-.1 0-.2-.1-.2l-.3.1c-.2.1-.4.1-.5.2-.3.1-.7.2-1 .3-1.7.5-3.5 1-5.1 1.6-1.2.3-2.3.7-3.4 1-.7.2-1.3.4-2 .6-.6.1-1.2.3-1.8.4-.6.1-1.1.3-1.7.4l-.4.1c.1-.1.1-.3.2-.4.1-.3.3-.6.4-.8.6-1.1 1.1-2.1 1.6-3.1s1.1-1.9 1.7-2.8c.1-.2.3-.4.4-.6l.3-.4c.2-.3.4-.5.6-.7 3.1-3.9 5.7-5.5 6-5.2.3.4-1.6 2.6-4.1 6.5-.2.2-.3.5-.5.8l-.2.4-.1.2c-.1.2-.2.5-.3.7-.1.2-.2.4-.2.6v.2h.1c.1-.1.3-.1.4-.2.2-.1.5-.2.7-.3l.3-.1c.4-.1.7-.2 1.1-.4 1.6-.5 3.3-1.1 5.1-1.6 1.1-.3 2.3-.7 3.4-1l.9-.3.5-.1c.2-.1.2 0 .3 0 .4 0 .7.1 1.1.1.4 0 .7.1 1.1.1.1 0 .1.1.1.2l.1.3c0 .2.1.4.1.7.1.8-.1 1.6-.4 2.4-.4.8-1 1.7-1.8 2.5-1 1-1.1 1.1-1.4 1.6-.2.4-.4.8-.5 1.1-.1.2 0 .4.1.6.1.1.2.2.4.3.2.1.5.2.8.3.6.2 1.3.3 1.8.4 1.2.2 2.2.4 3 .4 1.8.6 2.8.7 2.8.9zM521.5 864.3c-.5 0-.8-5.5-1.3-14.4s-1.1-21.1-2.3-34.6c-1.1-13.5-2.5-25.7-3.5-34.5s-1.6-14.3-1.2-14.4c.4-.1 1.8 5.3 3.4 14 1.6 8.8 3.4 21 4.5 34.5 1.1 13.6 1.4 25.9 1.3 34.8 0 9.1-.5 14.6-.9 14.6zM671.5 437.1c.4.2.1 1.5-.9 3.2-1 1.7-2.7 3.9-4.9 5.9-2.3 2-4.7 3.3-6.6 4-1.9.7-3.1.8-3.3.4-.4-.9 3.6-3.2 7.7-6.9 4.3-3.5 7.2-7.1 8-6.6zM502.9 659.5c-1-.2 3.3-18.2 4.9-40.9 1.7-22.6.1-41.1 1.1-41.2.4 0 1.4 4.5 2 12 .3 3.7.6 8.2.6 13.2s-.1 10.4-.5 16.2c-.4 5.7-1.1 11.2-1.9 16.1-.8 4.9-1.7 9.3-2.5 13-1.7 7.3-3.3 11.7-3.7 11.6zM332.6 1085.8c-.9-.1-.6-7.4 1.8-16 2.3-8.6 5.7-15.1 6.5-14.7.9.3-1.1 7.2-3.4 15.6-2.2 8.4-4 15.3-4.9 15.1z"></path><ellipse cx="692.2" cy="177.2" stroke="#000" stroke-miterlimit="10" rx="10.1" ry="1.6" transform="rotate(-56.53 692.253 177.146)"></ellipse><path stroke="#000" stroke-miterlimit="10" d="M714.7 176.7c.7.6-1.3 3.9-4.8 6.9-3.5 3-7 4.5-7.5 3.8-.5-.8 2-3.4 5.3-6.3 3.4-2.8 6.4-5 7-4.4zM745.6 199.6c.4.8-5.1 4-12.4 6.4-7.4 2.4-13.7 3-13.8 2.1-.2-.9 5.7-2.9 12.8-5.2 7.2-2.3 13-4.2 13.4-3.3zM536 342c.5.7-3.8 4.2-10.1 6.7-6.2 2.5-11.7 3.1-11.9 2.2-.2-.9 4.7-2.8 10.7-5.2 6-2.4 10.8-4.5 11.3-3.7z"></path><ellipse cx="527.5" cy="359.1" stroke="#000" stroke-miterlimit="10" rx="8.5" ry="1.6" transform="rotate(-7.793 527.387 359.045)"></ellipse><path stroke="#000" stroke-miterlimit="10" d="M533 374c-.1.9-4.2 1-8.9-.1-4.8-1.2-8.3-3.2-8-4 .3-.9 4.2-.3 8.8.8 4.5 1.1 8.2 2.4 8.1 3.3z"></path></g><g id="Layer_3"><path fill="#efd5ca" d="M857.9 150.4c-7.1 4.9-7.6 15.3-8.1 23.6-.4 7.7-.6 11.5 0 90.8 0 2.1 0 6.9 3.1 11.2 4.7 6.6 13.7 7.7 18 8.1 33.1 3.1 93.3-4.4 93.3-4.4s33.1-4.1 61-.6c7.3.9 12.8 1.6 19.3 5 7.1 3.7 9 7.3 15.6 8.7 6.9 1.5 15.3-.3 16.2-3.7 1-4-9.2-6.7-15.6-16.2-5.9-8.8-5.6-19.4-4.4-27.4-.9-12.2-1.8-31.5-1.2-55.4.9-36.5 4.4-43.7-1.9-51-6.3-7.4-15.2-6.1-98.9 2.5-41.5 4.2-44.3 4.4-49.8 4.4-11-.2-22 1.8-33 1.9-5.6 0-9.8-.1-13.6 2.5z"></path><path fill="#ff4f03" stroke="#ff4f03" stroke-miterlimit="10" d="M1097.1 512.1c-.5-.8 4.8-4.7 9.4-11.1 4.6-6.4 6.6-12.6 7.5-12.4.4.1.5 1.8-.2 4.5-.3 1.4-.9 2.9-1.6 4.6-.8 1.7-1.8 3.4-3 5.2-1.2 1.7-2.6 3.2-3.9 4.5-1.3 1.3-2.7 2.3-3.8 3-2.5 1.5-4.2 2-4.4 1.7z"></path><path fill="#ff4f03" stroke="#ff4f03" stroke-miterlimit="10" d="M1114.1 488c-.2.2-1.3-.5-3.2-1.6-1-.6-2.1-1.3-3.5-2-.3-.2-.7-.4-1.1-.6l-.6-.3-.3-.1c-.1-.1-.1 0-.2-.1-.3-.1-.6-.3-.9-.3V484l-.1.4c-.2 1.1-.5 2.3-.9 3.4-.7 2.3-1.8 4.7-3.2 7-1 1.6-2 3-2.8 4.4-.4.7-.7 1.4-.9 2-.2.7-.4 1.3-.4 1.9 0 1.2.4 2.4 1.1 3.3.7.8 1.5 1.2 2.3 1.2l-.6 2.1c-3.9-3.2-6.2-5.4-5.9-5.8.3-.4 3.1 1.2 7.3 3.9l2.5 1.6-3.1.5c-.8.1-1.7 0-2.5-.3s-1.6-.8-2.1-1.5c-1.2-1.3-1.9-3-2-5-.1-2 .6-3.8 1.4-5.5.8-1.7 1.9-3.1 2.8-4.6 1.3-2.1 2.3-4.2 3-6.3.4-1 .7-2.1 1-3.1l.1-.4c0-.2.1-.4.1-.6.1-.4.2-.9.3-1.3.1-.9.3-1.7.4-2.6 1.4.7 2.8 1.4 4 2.1l.4.3.3.2c.2.1.4.2.6.4.4.2.7.5 1 .7 1.3.9 2.4 1.9 3.3 2.6 1.8 1.7 2.6 2.8 2.4 3zM1235.4 397.7c.3.2-1.4 4.2-6 9.6-2.3 2.7-5.3 5.6-9 8.4-3.7 2.8-8.3 5.5-13.8 6.7-5.5 1.2-11.3.3-15.4-2.5-2.1-1.4-3.7-3.3-4.7-5.3-1.1-1.9-1.6-3.9-1.8-5.8-.4-3.7.4-6.7 1.3-8.4.9-1.8 1.8-2.5 2-2.4.2.1-.3 1.1-.8 2.9-.5 1.8-.9 4.4-.2 7.6.3 1.6.9 3.2 1.9 4.8 1 1.6 2.3 3 4 4.1 3.5 2.2 8.3 2.9 13.1 1.9 4.8-1 9.1-3.5 12.7-6 3.7-2.5 6.7-5.2 9.1-7.5 4.8-4.8 7.2-8.4 7.6-8.1zM1071.6 419.3c.3.3-.4 1.6-2 3.3-1.6 1.7-4.1 3.8-7.3 5.5-3.1 1.7-6.2 2.7-8.5 3.1-1.2.3-2.4.2-3.2-.3-.7-.5-.7-1-.6-1.2.2-.2.5 0 1-.1.5 0 1.1-.3 2.1-.7 2-1 4.8-2.2 7.7-3.8 5.9-3 10.2-6.5 10.8-5.8zM1071.2 429.7c.3.3 0 1.2-1 2.4-.9 1.2-2.5 2.6-4.5 3.7s-4 1.8-5.4 1.9c-1.5.2-2.5 0-2.6-.4-.2-.9 2.9-2.3 6.4-4.4 3.6-1.9 6.4-3.8 7.1-3.2z"></path><path fill="#edc264" d="M1128.9 280.5c0-2.7.3-6.7 1.5-11.3 1.3-4.9 3.7-10.4 8.8-17 11.4-15 20.8-27.4 38.7-33.5 31-10.7 58.1 7.4 59.3 8.3 3.9 2.7 14.9 10.3 21.1 24.2 5.6 12.4 3.2 20.1 4.1 34.6.8 12.8 7.6 29.5 21.1 62.9 9.8 24.3 13.9 31.1 17.5 48 3.5 16.3 3.2 25.9 2.6 32-1 10-2.7 26.5-15.5 37.7-5.7 4.9-11.6 7.2-15.5 8.3.4-8.5 0-19.9-3.1-33-1.5-6.3-4.3-17.8-11.9-30.4-6.8-11.4-10.3-11.8-15.5-21.1-7-12.5-6.5-22.2-8.3-32.5-3.3-19.6-15.8-35.1-40.8-66-23.2-28.7-33-32.4-39.7-31-3.8.8-8.5 3.7-9.3 4.1-8 4.8-12.8 11.7-15.1 15.7z"></path><path fill="#e0af90" d="M1141.1 267c-2.1 17.2-.6 31.4 1.1 40.9 1.9 10.9 5 26.9 16.3 43.7 5.9 8.8 12.2 15 16.8 19.1 6.4-.7 12.7-1.5 19.1-2.2 1.7 2.3 4.1 6.3 5 11.8.6 3.4 1.5 9.3-1.7 14-2.7 3.9-5.9 3.5-6.7 6.7-.9 3.5 2 7.5 5 9.5.8.6 3.8 2.3 9.5 1.7 10.3-1.1 17.4-8.6 23-14.6 3-3.2 7-8 10.7-14.6-5.2-9.1-5.9-16.3-5.6-21.3.4-7 3.1-11.2 1.7-18.5-1.1-5.7-6.7-7.9-5.6-11.8.5-1.9 1.9-2 3.9-4.5 4.2-5.1 4-11.7 3.9-13.5 0-1.1-.4-11.7-5.6-13.5-2.9-1-4.5 1.7-9.5 2.2-4.9.5-8.8-1.4-11.8-2.8-12.4-6.1-16.4-22.2-16.8-24.1-3.8-1.4-9.5-4.2-15.1-9.5-7.9-7.5-11.1-16-12.3-20.2-8.5 7.3-16.9 14.4-25.3 21.5zM989.6 451.7c3.1 4.1 8.5 10.1 16.6 14.8 6.9 4 12.3 5.1 26.5 8.7 6.5 1.6 16.5 4.2 29.1 7.7l28.2 22.2c2.3-1.3 8.8-5.5 12-13.7 1.6-4.1 1.8-7.8 1.7-10.3-2.6-1.5-6.4-4-10.3-7.7-6.6-6.4-7.7-10.7-12.8-17.1-5.5-6.9-11.2-10.5-18.8-15.4-10.4-6.7-18.4-9.2-24.8-10.3-5.3-.9-8.7-1.1-10.3.9-1.6 2-1 5.5 0 7.7 1.6 3.4 4.6 4.5 4.3 5.1-.5 1.1-8.9-3-19.7-3.7-2.9-.2-14.2-.9-15.7 3.3-.9 2.5 2 5.9 3.9 7.7-4.1-3.3-7.8-4.3-9.2-3-.4.4-1 1.1-.7 3.1zM959.1 369.3c1.9 2.1 5.3 5.4 10.1 8.6 7.8 5.2 14 6.4 31.1 11.6 3.9 1.2 10.1 3.1 17.8 5.6 6.3 10 12.6 20 19 29.9 2.9.2 8.4.1 14.5-2.7 8.2-3.7 12.4-10 13.9-12.4-6.1-7.4-11.4-13.2-15.1-17.2-12.6-13.5-15.2-14.2-17.2-20.1-1.1-3.3-2-8-6.2-12.1-1.6-1.5-2.9-2.3-5.6-3.9-6.4-3.7-8.7-3.3-16.9-6.8-6.8-2.9-8.6-4.6-10.1-3.6-2 1.4-1.3 6.7.9 10.4 2.8 4.6 7.7 5.9 7.4 6.5-.3.8-7.3-.3-15.4-3.9-9.2-4-12-7.8-16.3-6.5-2.9.9-5.5 3.7-5.6 6.5-.2 3.4 3.1 6.2 6.2 8.9 3.5 3 6.1 3.9 5.9 4.4-.2.7-3.7.5-18.4-3.2zM1125.2 816.2c1.2 9.8 2.9 25.2 4.5 44.3 1.8 20.9 2.7 37.7 5.3 98.3.6 14.4 1.4 32.7 2.3 54 1.5.8 9 4.9 18 2.3 5.5-1.6 9-5.1 10.5-6.8 2.7-9.9 5.1-21.2 6.8-33.8 2.4-18.5 2-33.1 1.5-50.3-.7-24.6-2.4-27.5-2.3-44.3.2-19.1 2.6-34.5 4.5-44.3 3.9-8.8 3.2-12.9 1.5-15-3.5-4.5-12.2-1.6-26.3-1.5-11 .2-20-1.4-26.3-2.9zM1191.2 819.2c3.4 7.8 8.5 20.1 14.3 35.3 15.6 41.2 24.5 74.1 36 117 4.3 16 10.1 38.3 16.5 65.3 3.4.6 11.4 1.5 20.3-2.3 6.4-2.7 10.5-6.6 12.8-9-1.6-21.1-3.5-38.9-5.3-52.5-3.7-29.4-5.5-44.2-9.8-57-7.2-22-12.4-23.2-18.8-47.3-3.4-12.9-5.9-22.4-6.8-36-1.2-19 2-28.7-3-31.5-5.1-2.9-11.9 5.6-28.5 12-11.3 4.3-21.3 5.6-27.7 6z"></path><path fill="#ff4f03" d="M1122.6 628c-5.5 18.2-10.5 38.5-14.4 60.7-7.4 42.7-8.6 81-7.2 112.6 14.8 6.2 27.6 9.5 36.5 11.3 49.7 10.2 88.2-2 96.2-4.6 6.7-2.2 12.1-4.5 15.4-6-.1-27.8-.4-53.5-.9-76.8-.4-22.4-.8-36.4-3.7-55.1-2.6-16.5-6.1-30-8.7-39.1-1.4-1.2-2.7-2.4-4.1-3.6-2 2.7-5.1 6.2-9.3 9.8-20.2 17.3-44.9 16.6-48.3 16.5-30.4-1.3-48.5-22.2-51.5-25.7zM1071.6 1103.2c-1.2-4.5 10.6-11.5 17.4-14.7 3.3-1.5 6.2-2.5 8.1-3.1 1.2.9 3.2 2.3 5.8 3.5 12.4 5.6 25.6.4 35.5-3.5 6.4-2.5 16.3-7.3 26.6-16.2 1 5.5 2.1 11.1 3.1 16.6-3 1.8-7.4 4.2-13.1 6.6-8.1 3.3-11.8 3.6-26.6 6.9-13 2.9-26.3 4.6-39.3 7.7-1 .2-5.3 1.3-10.4 0-2.7-.5-6.5-1.5-7.1-3.8zM1237 1121.4c-5.1 4.6-9.6 7.7-12.7 9.6-5.8 3.6-9.9 5.1-10 8.1-.2 3 3.7 5.4 4.2 5.8.9.6 4.2 2.4 11.2 1.2 8.5-1.5 14.8-6.2 18.5-9.6 6.5-.4 12.1-1.3 16.6-2.3 12-2.7 11.6-5 28.1-10.4 9.4-3.1 13.1-3.5 15-7.3 1.2-2.3-.1-2.4.4-13.1.2-4.5.6-7.9-1.2-12-.7-1.6-1.5-3.5-3.1-3.9-2.4-.5-4.8 3.2-6.9 5.8-2.4 2.9-7 5.5-16.2 10.8-16.9 9.7-42.4 16.8-43.9 17.3z"></path><path fill="#edd25f" d="M912.7 193.2c4.5 3.5 9.1 7.2 13.7 10.9 3.3 2.7 6.6 5.4 9.8 8-1.1 4.1-2.2 8.1-3.4 12.2-1.6 5.3-3.3 10.5-4.9 15.8 1.1-.3 2.8-.8 4.8-1.7 5.3-2.2 6.9-4.3 11.1-6 1.7-.7 4.2-1.4 7.6-1.6 4.5 3.2 10.9 6.8 19 9.1 2.8.8 5.5 1.3 8 1.7-1.7-9.4-3.4-18.8-5-28.2 7.1-7.3 14.3-14.6 21.4-21.9-2.1-.7-5.3-1.5-9.2-2.1-9-1.3-11.2.6-15.6-1.3-3.7-1.6-6-5.4-10.5-13-2.3-3.9-5-8.9-7.6-15.1-1.6 5-3.3 10.1-4.9 15.2-1.5 4.7-3 9.3-4.4 14-6.6 1.1-13.3 2.2-19.9 3.4-3.3.1-6.7.3-10 .6z"></path><path stroke="#000" stroke-miterlimit="10" d="M1217.9 348.9c.2.1-1.1 2-3.7 5.1-2.6 3.1-6.5 7.6-12.4 11.9-3 2.1-6.5 4.2-10.7 5.7-4.1 1.4-8.8 2.3-13.9 2-2.5-.2-5.1-.7-7.5-1.7-2.5-.9-4.8-2.3-7-4-4.3-3.3-7.8-7.8-10.6-12.6-5.6-9.7-9.5-19.5-12.2-28.8-2.7-9.2-4.2-17.8-4.9-25-.7-7.2-.7-13.1-.5-17.1.2-4 .6-6.3.8-6.2.3 0 .3 2.2.5 6.2s.5 9.8 1.5 16.9c1 7.1 2.7 15.4 5.5 24.4 2.8 9 6.8 18.6 12.1 28 2.8 4.6 6 8.8 9.8 11.8 3.8 3.1 8.3 4.8 12.8 5.2 4.5.4 8.9-.3 12.7-1.5 3.9-1.2 7.3-3.1 10.2-5 5.9-3.9 9.9-8.1 12.8-10.9 3-3 4.5-4.6 4.7-4.4zM1197.7 394.1c-.9-.4.7-5.3-.2-11.4-.7-6.1-3.4-10.6-2.6-11.1.3-.3 1.5.6 2.8 2.4.7.9 1.3 2.1 1.8 3.5s1 3 1.2 4.8c.2 1.7.2 3.4 0 4.9-.2 1.5-.5 2.8-.9 3.9-.8 2.1-1.7 3.1-2.1 3zM1246.4 398.5c-.3.2-2.6-2.3-5.3-7.1-.3-.6-.7-1.2-1-1.9-.4-.7-.7-1.4-1-2.1-.7-1.4-1.4-3.1-2-4.7-1.3-3.4-2.4-7.2-3.3-11.4-.8-4.1-1.2-8.1-1.3-11.7 0-1.8-.1-3.5.1-5.2 0-.8.1-1.6.1-2.3.1-.7.2-1.5.2-2.1.7-5.4 1.8-8.7 2.2-8.6.5.1.2 3.4.1 8.7v2.1c0 .7 0 1.5.1 2.3 0 1.6.1 3.2.2 5 .3 3.5.8 7.3 1.5 11.3.8 4 1.8 7.7 2.9 11 .6 1.7 1.1 3.2 1.7 4.7.3.7.5 1.4.8 2.1.3.7.6 1.3.8 1.9 2 4.7 3.6 7.7 3.2 8zM1218.4 329.9c.1-.2.9.1 2.2.4 1.3.3 3.2.4 5.4-.3 1.1-.3 2.2-.9 3.3-1.7 1-.8 2.1-1.8 2.9-3.1 1.7-2.5 2.9-5.8 3.4-9.4.6-3.6.2-7-1.2-9.5s-3.8-4.1-5.9-4.2c-1.1-.1-2.1.1-2.9.4-.8.3-1.5.7-2 1.2-1 .8-1.3 1.6-1.6 1.5-.2 0-.3-1 .6-2.3.9-1.3 2.8-2.9 5.8-3.1 3-.2 6.5 1.7 8.5 4.9 1 1.6 1.7 3.5 2 5.5.3 2 .2 4-.1 6.1-.6 4-2 7.8-4.2 10.7-1.1 1.5-2.4 2.7-3.8 3.5-1.4.9-2.9 1.4-4.2 1.7-2.7.5-5.1 0-6.4-.7-1.4-.7-1.9-1.5-1.8-1.6z"></path><path stroke="#000" stroke-miterlimit="10" d="M1144.1 299.6c-.4.2-1.1-.3-1.7-1.3-.6-1-1.1-2.6-1.2-4.4-.1-1.8.3-3.4.8-4.5s1.1-1.6 1.6-1.5c.9.3.7 2.9.9 5.8 0 3 .4 5.5-.4 5.9z"></path><ellipse cx="1172.4" cy="300.5" stroke="#000" stroke-miterlimit="10" rx="1.6" ry="7.7"></ellipse><path stroke="#000" stroke-miterlimit="10" d="M1150.7 280c-.4.2-1.1-.4-2.1-1.1-1-.6-2.5-1.3-4.1-1.4-1.6 0-3.1.6-4.2 1.1-1.1.6-1.8 1.2-2.2.9-.4-.2-.4-1.3.6-2.6s3.1-2.8 5.8-2.7c2.7.1 4.8 1.7 5.7 3 1 1.6.9 2.7.5 2.8zM1177.7 288.6c-.4.1-1-.3-1.8-1-.7-.7-1.7-1.5-2.9-2.2-1.2-.7-2.4-1.2-3.3-1.6-.9-.4-1.6-.7-1.7-1.1-.1-.4.6-1 1.9-1.2 1.3-.2 3.1.1 4.8 1.1 1.7 1 2.7 2.6 3.1 3.8.5 1.2.3 2.1-.1 2.2zM1158.4 319.5c0 .2-.3.4-.9.5-.6.1-1.4 0-2.4-.4-1.9-.8-4.2-3-4.8-6.2-.3-1.6-.2-3.1.2-4.3.3-1.3.8-2.3 1.4-3.1 1.1-1.6 2.1-2.2 2.5-2 .4.3 0 1.4-.4 2.9-.4 1.6-.8 3.7-.4 5.9.4 2.1 1.7 3.8 2.8 4.8 1 1 2 1.4 2 1.9zM1180.9 331.4c.4.2.1 1.9-1.5 4.1-.2.3-.4.6-.7.9-.2.3-.5.6-.8.8-.5.6-1.2 1.1-1.9 1.7-1.5 1.1-3.3 2-5.3 2.7-2 .6-4 .9-5.8.8-.9-.1-1.8-.1-2.6-.3-.4-.1-.8-.1-1.1-.2-.4-.1-.7-.2-1-.3-2.6-.9-3.8-2.2-3.6-2.5.2-.4 1.7 0 4.1.3.3 0 .6.1.9.1h1c.7.1 1.4 0 2.2 0 1.5-.1 3.2-.4 4.9-.9 1.7-.6 3.2-1.3 4.6-2 .6-.4 1.3-.8 1.8-1.2.3-.2.6-.4.8-.6.2-.2.5-.4.7-.6 1.9-1.7 2.9-3 3.3-2.8zM1133.1 278.1c.2.1-.1 1.2-1.1 2.9-.5.9-1.2 1.9-2.2 2.9-.5.5-1 1.1-1.9 1.6-.4.3-1 .4-1.6.5-.6 0-1.2-.1-1.7-.4-1-.5-1.8-1.3-2.4-2.3-.6-1-1-2-1.2-3.1-.5-2.2-.4-4.6.1-7 .5-2.4 1.3-4.7 2.3-7 .5-1.2 1-2.3 1.5-3.5.6-1.2 1.1-2.4 1.8-3.5 5.1-9.5 11.8-16.7 17.2-21.1 5.4-4.4 9.3-6.3 9.6-5.9.3.4-3.2 2.9-8 7.7-4.8 4.7-11 11.8-15.9 20.9-.6 1.1-1.2 2.3-1.7 3.4s-1.1 2.2-1.5 3.4c-.9 2.2-1.8 4.4-2.3 6.5-.5 2.1-.7 4-.4 5.8.1.9.4 1.7.8 2.4.3.7.8 1.2 1.3 1.5.5.3.9.3 1.3.1.5-.2 1-.7 1.5-1.1 1-.9 1.8-1.7 2.4-2.4 1.2-1.6 1.9-2.4 2.1-2.3z"></path><path stroke="#000" stroke-miterlimit="10" d="M1169.1 244c.4.9-10.5 6.3-21.1 16.6-10.7 10.2-16.4 21-17.3 20.5-.4-.2.6-3.1 3-7.5.6-1.1 1.3-2.3 2.1-3.5.8-1.2 1.7-2.5 2.7-3.8 2-2.6 4.4-5.4 7.2-8 2.8-2.7 5.6-5 8.3-6.9 1.4-.9 2.6-1.8 3.9-2.6 1.2-.8 2.4-1.4 3.6-2 4.5-2.3 7.5-3.2 7.6-2.8zM1197.6 275.2c-.1.4-2.6.4-6.5-.8-1-.3-2-.7-3.1-1.1-1.1-.4-2.2-1-3.4-1.7-2.3-1.3-4.8-3-7.2-5-2.3-2.1-4.3-4.3-5.9-6.5-.8-1.1-1.5-2.2-2.1-3.2-.6-1-1.1-2-1.5-3-1.6-3.7-2-6.2-1.6-6.4.5-.2 1.5 2 3.6 5.3.5.8 1.1 1.7 1.8 2.6.6.9 1.4 1.8 2.2 2.8 1.6 1.9 3.5 3.9 5.7 5.9 2.2 1.9 4.4 3.5 6.5 4.9 1.1.6 2.1 1.3 3.1 1.8 1 .6 1.9 1 2.8 1.4 3.4 1.7 5.7 2.5 5.6 3zM1223.4 299.7c.1.2-.4.7-1.5 1.2-1.1.6-2.8 1.1-4.9 1.2-2.2.1-4.8-.2-7.5-1.2s-5.4-2.7-7.8-5c-2.3-2.3-4.1-4.9-5.3-7.4-1.3-2.5-2.1-4.8-2.7-6.8-1.2-4-1.4-6.5-1-6.6.5-.1 1.5 2.2 3.2 5.8 1.7 3.6 4.1 8.6 8.2 12.7 2 2 4.4 3.5 6.6 4.6 2.3 1 4.5 1.6 6.4 1.7 3.8.3 6.1-.7 6.3-.2zM1255.3 244.5c-.2.1-.8-1.2-2.1-3.4-1.3-2.1-3.5-5.1-6.8-8.1s-7.8-5.9-13.2-8.2c-5.4-2.3-11.8-4-18.6-5.3-3.4-.7-6.7-1.3-9.9-1.7-3.2-.4-6.3-.7-9.3-.8-6-.3-11.3.2-15.7 1-8.9 1.6-13.9 4.4-14.1 3.9-.1-.2 1-1.1 3.3-2.3 2.3-1.3 5.8-2.7 10.3-3.8 2.3-.6 4.8-1 7.5-1.3 2.7-.3 5.7-.5 8.7-.4 3.1 0 6.3.2 9.6.6 3.3.4 6.7.9 10.2 1.6 6.9 1.4 13.5 3.2 19.2 5.8 5.7 2.5 10.4 5.9 13.6 9.3 3.3 3.4 5.3 6.7 6.3 9.2 1 2.3 1.2 3.8 1 3.9zM1278.5 475.9c-.2-.2 2.6-2.1 6.8-6.3 2-2.2 4.4-4.9 6.7-8.4s4.5-7.8 6.3-12.7c1.8-4.9 3.2-10.6 3.8-16.7.3-3.1.5-6.3.4-9.6 0-3.3-.3-6.7-.7-10.2-.8-6.9-2.4-14.1-4.5-21.4-2.2-7.3-4.9-14.7-8-22.3-6.2-15.1-12.8-29.2-17.3-42.8-4.6-13.5-7.4-26.1-9.1-36.7-1.7-10.6-2.3-19.3-2.5-25.3-.2-6 0-9.3.3-9.3.2 0 .5 3.3 1 9.3.6 5.9 1.5 14.5 3.5 25s5 22.8 9.7 36.1c4.6 13.3 11.3 27.3 17.5 42.5 3.1 7.6 5.9 15.1 8.1 22.6 2.1 7.5 3.7 14.9 4.5 22 .4 3.6.6 7.1.6 10.5 0 3.4-.2 6.7-.6 9.9-.8 6.4-2.4 12.2-4.4 17.2-2 5.1-4.4 9.4-6.9 12.9s-5.1 6.3-7.3 8.3c-1.1 1-2.1 1.9-3.1 2.6-.9.7-1.7 1.3-2.4 1.7-1.6.8-2.3 1.2-2.4 1.1zM1221.8 319.9c-.4.1-1.1-.8-1.4-2.4-.1-.8-.1-1.8.1-3 .2-1.1.6-2.3 1.2-3.4s1.5-2.1 2.3-2.8c.9-.7 1.7-1.3 2.5-1.6 1.6-.6 2.7-.5 2.8-.1.1.4-.6 1.1-1.6 2-.5.5-1 1.1-1.6 1.7-.5.7-1.1 1.4-1.6 2.3-.5.9-.9 1.7-1.2 2.5-.3.8-.5 1.6-.7 2.2-.2 1.5-.3 2.5-.8 2.6z"></path><path stroke="#000" stroke-miterlimit="10" d="M1225.6 321c-.5 0-.8-.4-1.2-.7-.4-.3-.7-.7-1.1-1.1-.4-.4-.8-.7-1.1-1.1-.3-.4-.7-.7-.8-1.2-.1-.4.3-.9 1.2-1.1.8-.2 2.1.1 3 1 .9.9 1.3 2.1 1.1 2.9-.1 1-.6 1.4-1.1 1.3zM1240.1 350.3c-.7.6-4.5-2.9-7.3-8.4-2.9-5.5-3.5-10.6-2.7-10.8.9-.3 2.9 4.2 5.6 9.3 2.7 5.2 5.1 9.3 4.4 9.9z"></path><ellipse cx="1181.7" cy="332.3" stroke="#000" stroke-miterlimit="10" rx="3.7" ry="1.6" transform="rotate(47.695 1181.678 332.303)"></ellipse><path stroke="#000" stroke-miterlimit="10" d="M1235.7 620.1c-.1 0-.4-.7-.8-2.1-.2-.7-.4-1.6-.6-2.6-.1-.5-.2-1.1-.3-1.7-.1-.6-.1-1.3-.2-2-.6-5.5.2-13.7 3.2-23.1 2.9-9.5 7.9-20.1 12.6-32.1 4.8-12 9.6-25.3 13.3-39.7 3.8-14.4 5.9-28.4 6.4-41.2.5-12.8-.7-24.4-2.5-33.9-1.9-9.5-4.5-17-6.4-22.1-.5-1.3-1-2.4-1.3-3.4-.4-1-.8-1.8-1.1-2.4-.6-1.3-.8-2.1-.7-2.1.1-.1.5.6 1.3 1.8.4.6.8 1.4 1.3 2.3.5.9 1 2 1.6 3.3 2.3 5 5.4 12.4 7.5 22.1 2.2 9.6 3.6 21.4 3.3 34.5-.3 13.1-2.4 27.4-6.2 41.9-3.8 14.6-8.7 28-13.7 40-4.9 12-10.1 22.5-13.2 31.7-3.2 9.2-4.3 17-4.1 22.4.1 5.4.9 8.3.6 8.4zM1157 510.9c-.2.2-1.3-.7-3.3-2.3-1-.7-2.3-1.7-3.7-2.7-.7-.5-1.5-1-2.4-1.6-.8-.6-1.8-1.1-2.7-1.7-3.9-2.3-8.7-4.8-14.1-7.2-5.5-2.5-11.6-5.1-17.9-8.2-3.2-1.5-6.2-3.2-9.1-4.9-1.4-.9-2.8-1.8-4.1-2.7-1.3-.9-2.6-1.9-3.8-2.8-4.8-3.9-8.6-7.9-11.5-11.6-2.9-3.6-4.8-6.9-6.1-9.1-1.2-2.3-1.7-3.6-1.5-3.7.5-.3 3.3 4.7 9.3 11.4 3 3.4 6.9 7.1 11.6 10.7 1.2.9 2.4 1.8 3.7 2.6 1.3.9 2.7 1.7 4 2.5 2.8 1.6 5.7 3.2 8.9 4.8 6.2 3.1 12.3 5.7 17.7 8.4 5.5 2.7 10.3 5.4 14.1 8 .9.7 1.9 1.3 2.7 1.9.8.7 1.6 1.3 2.3 1.9 1.4 1.2 2.5 2.3 3.5 3.2 1.7 1.8 2.6 2.9 2.4 3.1zM1218.3 427c0 .1-.3.3-.9.7-.6.3-1.6.7-2.8 1.3-2.4 1.1-5.8 2.9-9.7 5.5-3.9 2.7-8.3 6.2-12.7 10.6-4.5 4.4-9 9.6-13.5 15.3-4.5 5.7-8.8 11.3-12.8 16.2-4.1 4.9-8 9.2-11.5 12.5-1.8 1.7-3.4 3.1-4.9 4.3-1.4 1.2-3 2.3-4.3 2.7-1.4.5-2.6.4-3.4 0-.7-.3-.9-.7-.9-.8.1-.1.4.1 1.1.2.6.1 1.6 0 2.7-.6.6-.3 1.1-.7 1.7-1.1.6-.5 1.2-1.1 1.9-1.7 1.4-1.3 2.9-2.8 4.5-4.6 3.3-3.5 6.9-7.8 10.8-12.8 3.9-5 8-10.6 12.6-16.4 4.6-5.8 9.3-11.1 14-15.5 4.7-4.4 9.4-7.9 13.6-10.4 4.2-2.5 7.9-4 10.5-4.8 1.3-.4 2.3-.6 3-.8.6.1 1 .1 1 .2zM1157.9 538.4c0 .4-6.3.1-16-2.6-4.8-1.4-10.5-3.4-16.5-6.3-6-2.8-12.4-6.4-18.8-10.6-12.7-8.5-23.1-17.7-30.4-24.4-7.3-6.8-11.5-11.2-11.3-11.5.3-.3 5.1 3.5 12.8 9.8 7.7 6.3 18.2 15.1 30.7 23.4 6.3 4.1 12.4 7.7 18.3 10.6 5.8 2.9 11.2 5.1 15.9 6.8 9.3 3.2 15.3 4.3 15.3 4.8zM1244.1 475.8c.2.5-5.8 2-14 7-2.1 1.3-4.2 2.7-6.5 4.4-2.3 1.7-4.6 3.6-7 5.8-4.8 4.2-9.7 9.3-14.7 14.8-5.1 5.5-9.9 10.7-14.6 15.3-4.7 4.5-9.3 8.3-13.4 11.1-4.1 2.8-8 4.5-10.7 5-2.8.5-4.4.2-4.4 0 0-.3 1.5-.4 4-1.3s5.9-2.7 9.7-5.6c3.8-3 8.1-6.8 12.6-11.4 4.5-4.6 9.2-9.9 14.3-15.3 5.1-5.5 10.1-10.6 15.2-14.8 2.5-2.1 5-4 7.4-5.7 2.4-1.7 4.7-3.1 6.9-4.2 4.4-2.4 8.2-3.7 10.9-4.4 1.3-.4 2.4-.6 3.1-.6.8-.2 1.1-.2 1.2-.1zM1139.2 485.9c-.4 0-1.1-3.8-1.2-10 0-1.6 0-3.3.2-5.1.1-1.8.3-3.8.5-5.8.6-4.1 1.4-8.6 2.7-13.2 1.3-4.6 2.9-8.9 4.6-12.6.9-1.9 1.7-3.7 2.6-5.3.8-1.6 1.7-3.1 2.5-4.4 3.3-5.3 5.9-8.2 6.2-7.9.4.3-1.5 3.6-4.2 9.1-.7 1.4-1.4 2.9-2.1 4.5-.8 1.6-1.5 3.4-2.2 5.2-1.5 3.7-2.9 7.9-4.2 12.4-1.2 4.5-2.2 8.8-2.9 12.7-.3 2-.6 3.9-.8 5.6-.2 1.8-.4 3.4-.5 4.9-.6 6-.7 9.8-1.2 9.9zM1118.1 615.9c-.8-.1.1-17.8 5.5-38.9 5.3-21.1 12.9-37.2 13.7-36.8.9.4-5.3 16.7-10.5 37.6-5.4 20.9-7.7 38.3-8.7 38.1zM1257.1 870.9c-.1 0-.4-.8-.9-2.5-.2-.8-.5-1.9-.9-3.1-.2-.6-.4-1.3-.5-2-.2-.7-.3-1.5-.5-2.3-1.6-6.4-3.3-15.9-4.7-27.7-1.4-11.8-2.2-25.9-2.4-41.6-.2-15.7.1-32.9.3-50.9.2-18-.1-35.2-1.3-50.7s-3.2-29.4-5.9-40.9c-1.3-5.7-2.7-10.9-4-15.4-.7-2.2-1.4-4.3-2-6.2-.7-1.9-1.3-3.6-1.9-5.2-.3-.8-.5-1.5-.8-2.2-.3-.7-.5-1.3-.8-1.9-.5-1.2-.8-2.2-1.2-3-.6-1.6-.9-2.5-.8-2.6.1 0 .6.7 1.4 2.3.4.8.9 1.7 1.5 2.9.3.6.6 1.2.9 1.9.3.7.6 1.4.9 2.2.6 1.5 1.4 3.2 2.1 5.1.7 1.9 1.4 4 2.2 6.2 1.5 4.5 3.1 9.6 4.5 15.4 3 11.5 5.2 25.5 6.6 41.2 1.4 15.6 1.8 32.9 1.6 51-.2 18.1-.6 35.2-.6 50.9 0 15.6.6 29.6 1.7 41.4 1.1 11.7 2.4 21.2 3.6 27.7.1.8.3 1.6.4 2.3.1.7.3 1.4.4 2 .2 1.3.4 2.3.6 3.2.5 1.5.6 2.4.5 2.5zM1089.7 801.9c-.2 0-.5-2.5-.7-7.1-.1-1.2-.1-2.4-.2-3.8 0-1.4-.1-2.9-.1-4.6-.1-3.3-.2-7-.1-11.1 0-2.1 0-4.2.1-6.5 0-2.3.1-4.6.2-7 .1-4.9.5-10 .8-15.5.8-10.9 1.9-22.9 3.7-35.3 1.8-12.5 3.9-24.3 6.1-35 1.2-5.3 2.3-10.4 3.5-15.1.6-2.4 1.1-4.6 1.7-6.8.6-2.2 1.2-4.3 1.7-6.3 1.1-4 2.2-7.6 3.1-10.7.5-1.6.9-3 1.4-4.4.5-1.3.9-2.5 1.2-3.6 1.5-4.4 2.5-6.7 2.7-6.7s-.3 2.6-1.5 7c-.3 1.1-.6 2.4-1 3.7-.3 1.4-.7 2.8-1.1 4.4l-2.7 10.8c-.5 2-1 4.1-1.5 6.3s-1 4.5-1.5 6.8c-1.1 4.7-2.1 9.8-3.2 15.1-2.1 10.7-4.1 22.4-5.9 34.8-1.7 12.4-3 24.3-3.9 35.1-.4 5.4-.8 10.6-1.1 15.4-.1 2.4-.3 4.7-.4 7-.1 2.2-.2 4.4-.3 6.4-.2 4.1-.3 7.8-.4 11.1-.1 1.6-.1 3.2-.2 4.6 0 1.4-.1 2.7-.1 3.8.1 4.6-.1 7.1-.3 7.2zM1231.4 809.6c.1.2-1.8 1-5.1 2.2-.8.3-1.8.6-2.8 1-1 .3-2.2.7-3.4 1-2.5.7-5.2 1.6-8.4 2.3-1.6.4-3.2.8-4.9 1.2-1.7.4-3.5.7-5.4 1.1-3.7.8-7.7 1.3-11.9 1.9-8.4 1-17.8 1.7-27.6 1.7-9.8-.1-19.2-.8-27.6-1.9-4.2-.6-8.2-1.2-11.9-2-1.9-.4-3.7-.7-5.4-1.1-1.7-.4-3.3-.8-4.9-1.2-3.1-.7-5.9-1.6-8.3-2.4-1.2-.4-2.4-.7-3.4-1.1-1-.4-2-.7-2.8-1-3.4-1.2-5.2-2-5.1-2.3.1-.2 2 .2 5.5 1 .9.2 1.8.5 2.9.7 1.1.2 2.2.5 3.4.8 2.5.6 5.3 1.3 8.4 1.9 1.6.3 3.2.6 4.9 1 1.7.3 3.5.6 5.3.9 3.7.7 7.6 1.1 11.8 1.7 8.3.9 17.6 1.6 27.3 1.7 9.7 0 18.9-.6 27.3-1.5 4.2-.5 8.1-1 11.8-1.6 1.8-.3 3.6-.5 5.3-.9 1.7-.3 3.3-.6 4.9-1 3.1-.5 5.9-1.3 8.4-1.8 1.2-.3 2.4-.5 3.4-.8 1.1-.3 2-.5 2.9-.7 3.4-.6 5.3-1 5.4-.8zM1262.9 1079.2c-.2 0-1.2-3.6-2.8-10.1-.4-1.6-.8-3.5-1.3-5.5s-1.1-4.1-1.6-6.5c-1.2-4.6-2.5-9.9-4-15.8-.8-2.9-1.6-6-2.4-9.1-.8-3.2-1.8-6.5-2.7-9.9-1.8-6.8-4-14.1-6.2-21.8-4.5-15.3-9.6-32-15.2-49.6-11.2-35-21.7-66.7-28.9-89.7-3.6-11.5-6.5-20.8-8.3-27.3-1.9-6.5-2.8-10.1-2.6-10.2.2-.1 1.6 3.4 3.8 9.8 2.2 6.4 5.4 15.6 9.3 27 7.8 22.8 18.6 54.3 29.8 89.4 5.6 17.6 10.6 34.4 15 49.7 2.1 7.7 4.2 15 5.9 21.9.9 3.4 1.8 6.8 2.5 10 .8 3.2 1.5 6.3 2.2 9.2 1.4 5.9 2.6 11.2 3.6 15.9.5 2.3 1 4.5 1.4 6.5.4 2 .7 3.9 1 5.5 1.1 6.9 1.7 10.5 1.5 10.6z"></path><path stroke="#000" stroke-miterlimit="10" d="M1303.4 1085.4c-.2.1-1.3-2.9-3.2-8.3-.8-2.7-1.8-6.1-2.8-10.1-.9-4-2.1-8.5-3-13.5-2-10.1-3.8-22.2-5.3-35.6-1.6-13.5-2.9-28.3-4.7-43.8-1.8-15.5-4.1-30.1-7.2-43.2-3-13.1-6.7-24.7-10.2-34.3-3.5-9.6-6.8-17.2-9.1-22.4-2.3-5.2-3.7-8.1-3.5-8.2.2-.1 1.9 2.6 4.6 7.6 2.7 5.1 6.3 12.6 10.1 22.1 3.8 9.6 7.7 21.2 11 34.4 3.2 13.2 5.6 28 7.5 43.5 1.8 15.5 3 30.4 4.4 43.8 1.4 13.4 2.9 25.5 4.6 35.6.8 5 1.8 9.5 2.5 13.5.9 4 1.7 7.4 2.3 10.1 1.5 5.7 2.2 8.8 2 8.8zM1131.7 1053.6c-.2 0-.6-3.3-1.2-9.3-.5-6-1.2-14.7-2-25.4-1.6-21.5-3.7-51.2-6.1-84-2.4-32.8-4.5-62.5-6.1-84-.8-10.7-1.3-19.5-1.7-25.5-.3-6-.4-9.4-.2-9.4s.7 3.3 1.5 9.3c.7 6 1.6 14.7 2.7 25.4 2.1 21.5 4.7 51.1 7.1 83.9 2.4 32.8 4.1 62.5 5.2 84.1.5 10.8.9 19.5 1 25.5.1 6 0 9.4-.2 9.4zM1163.9 1054.6c-.1 0-.2-.8-.4-2.4-.1-1.6-.3-3.8-.4-6.8-.2-5.9.1-14.5 1.1-25s2.8-23 4.6-36.8c.9-6.9 1.8-14.1 2.5-21.6.7-7.5 1-15.3 1.1-23.3.2-16-.4-31.3-.6-45.3-.2-14 0-26.6 1-37.1.9-10.6 2.5-19 3.8-24.8 1.4-5.7 2.5-8.8 2.7-8.8.2.1-.4 3.3-1.4 9-.9 5.8-2.1 14.2-2.7 24.7-.6 10.5-.6 23-.3 36.9.4 13.9 1.1 29.2.9 45.4-.2 8.1-.5 16-1.2 23.6-.7 7.6-1.7 14.9-2.7 21.8-2 13.8-4 26.2-5.3 36.6-1.3 10.4-1.9 18.9-2.1 24.8-.2 2.9-.2 5.2-.3 6.8-.1 1.5-.2 2.3-.3 2.3zM1288.8 1029.5c.3.3-1.2 2-4.2 4-.8.5-1.6 1-2.5 1.5-.9.5-2 .9-3.1 1.4-2.2.8-4.7 1.6-7.5 2-2.7.4-5.3.4-7.7.3-1.2-.1-2.3-.2-3.3-.5-1-.2-2-.4-2.8-.7-3.4-1-5.3-2.3-5.1-2.7.2-.5 2.3 0 5.6.4.8.1 1.7.2 2.7.3 1 .1 2 .1 3.1.1 2.2 0 4.6-.1 7.1-.5s4.8-1 6.9-1.6c1-.3 2-.7 3-1 .9-.3 1.8-.7 2.5-1 3.1-1.4 5-2.4 5.3-2zM1211.9 1136.5c-.2-.1.2-1.2 1.3-3s3-4.2 5.6-6.9c5.2-5.3 12.5-12.4 20.8-20.1 4.1-3.8 8.1-7.5 11.7-10.7 1.8-1.6 3.6-3.2 5.2-4.6l2.4-2.1c.7-.6 1.2-1.2 1.3-1.6.1-.4-.1-1-.6-1.8l-.6-1.2c-.1-.4-.2-.9-.3-1.3-.2-1.7.2-3.1.7-4.1.5-1 1.2-1.6 1.7-2 .5-.3.8-.4.9-.3.2.2-.8.9-1.4 2.7-.2.9-.4 2.1-.1 3.3l.3.9c.1.3.3.6.5.9.2.3.5.7.7 1.2.2.5.4 1.2.3 1.9-.1.7-.4 1.3-.8 1.8s-.8.9-1.1 1.3c-.7.7-1.5 1.4-2.2 2.2-1.6 1.5-3.2 3.1-5 4.8-3.5 3.4-7.4 7.1-11.5 10.9-8.2 7.7-15.8 14.5-21.4 19.3-2.7 2.4-4.8 4.5-6.2 6-1.3 1.8-2 2.7-2.2 2.5zM1308.4 1115.4c.1.2-.9 1.2-3 3.1-1 .9-2.5 1.8-4.1 3-.8.6-1.7 1.1-2.7 1.7-1 .6-2 1.2-3.1 1.7-4.3 2.4-9.8 4.6-16 6.6-6.2 2.1-13.1 3.9-20.2 5.8-7.2 1.9-13.9 3.8-19.9 6-1.5.6-3 1.1-4.4 1.6-1.4.6-2.8 1.1-4.2 1.6-2.8 1-5.6 1.6-8.2 1.6-2.7 0-5-.9-6.7-2.1-1.7-1.2-2.9-2.6-3.6-3.9-.7-1.3-.9-2.4-.9-3.2 0-.8.1-1.1.2-1.1.3 0 .3 1.6 1.8 3.7.7 1 1.9 2.1 3.4 3 1.6.8 3.5 1.5 5.8 1.3 2.3-.1 4.7-.8 7.3-1.8 1.3-.5 2.6-1.1 4-1.7 1.4-.6 2.9-1.2 4.4-1.8 6.1-2.4 12.9-4.4 20.1-6.3 7.2-1.9 14-3.6 20.2-5.5 6.1-1.9 11.5-3.8 15.9-5.8 8.8-4.1 13.5-8 13.9-7.5zM1307.9 1114.4c-.9-.2.1-6.3-.8-13.7-.8-7.4-3.3-13-2.5-13.5.4-.2 1.5 1 2.8 3.3.6 1.2 1.2 2.6 1.8 4.3.5 1.7.9 3.5 1.2 5.5.5 4 .1 7.7-.5 10.2-.8 2.6-1.6 4-2 3.9z"></path><path stroke="#000" stroke-miterlimit="10" d="M1162.2 1010.9c.2.3-1.2 1.8-4 3.3-.7.4-1.5.8-2.4 1.1-.9.4-1.8.7-2.9.9-2.1.5-4.4.9-6.9 1-2.5 0-4.8-.2-6.9-.7-1-.3-2-.5-2.9-.8-.9-.3-1.7-.6-2.4-1-2.9-1.4-4.4-2.8-4.2-3.1.2-.4 2.1.2 4.9 1 .7.2 1.5.4 2.4.5.8.2 1.8.3 2.7.5 1.9.3 4.1.4 6.3.4 2.2-.1 4.4-.3 6.3-.6 1-.2 1.9-.4 2.7-.6.9-.2 1.6-.4 2.3-.6 3-1 4.8-1.7 5-1.3zM1068.5 1097.7c-.3-.3 2.6-3.5 7.9-8 5.3-4.5 12.9-10.3 22-15.8 4.5-2.7 9-5.2 13.1-7.2 2.1-1 4-1.9 5.9-2.8 1.9-.9 3.6-1.5 4.8-2.3.6-.4 1.1-.9 1.4-1.4.3-.5.6-1.2.8-1.8.2-.6.5-1.3.8-1.9.3-.6.7-1.1 1.2-1.5.9-.7 1.9-.9 2.5-.7.6.2.7.5.7.6-.1.1-.3 0-.7 0-.4 0-1 .3-1.5.9-.3.3-.5.7-.6 1.2-.2.5-.3 1.1-.4 1.8-.1.7-.3 1.5-.7 2.3-.4.8-1 1.6-1.8 2.3-.8.6-1.6 1.2-2.5 1.6-.8.4-1.7.9-2.6 1.4-1.8.9-3.7 1.9-5.7 3-4 2.1-8.3 4.6-12.8 7.3-18.1 10.7-31.2 21.7-31.8 21zM1167.4 1085.5c-.9-.1-1.1-5.5-2.1-12s-2.5-11.7-1.7-12.1c.4-.2 1.3 1 2.3 3 1 2.1 2 5.1 2.5 8.6s.5 6.7.2 8.9c-.2 2.3-.8 3.6-1.2 3.6zM1159.8 1089.9c.1.4-4.4 2.5-12 5.2s-18.3 5.9-30.3 8.5c-12 2.6-23.1 4.1-31.1 4.8-4 .4-7.5.3-9.7-.4-2.3-.6-3.3-1.5-3.2-1.6.1-.2 1.3.2 3.4.4 2.2.2 5.3 0 9.2-.7 7.9-1.3 18.8-3.1 30.7-5.7 23.8-5.1 42.7-11.4 43-10.5z"></path><path stroke="#000" stroke-miterlimit="10" d="M1163.4 1070c.3.2-2.2 4-7.9 8.5-2.9 2.2-6.6 4.5-11 6.5s-9.5 3.5-14.9 4.6c-5.4 1-10.7 1.4-15.5 1.3-2.4 0-4.7-.1-6.8-.3-2.1-.2-4.1-.4-6-.9-1.9-.6-3.5-1.5-4.5-2.9-1-1.3-1.3-2.7-1.4-3.8-.1-1.1.3-2 .6-2.4.3-.5.6-.6.7-.6.2.1-.4 1.1 0 2.9.2.9.7 1.9 1.5 2.8.8.8 2.1 1.5 3.7 1.8 1.6.3 3.5.4 5.6.4 2.1.1 4.3.1 6.6 0 4.6-.1 9.7-.5 14.9-1.5 5.2-1 10.1-2.4 14.3-4.1 4.3-1.7 7.9-3.7 10.8-5.6 5.8-3.9 8.9-7.1 9.3-6.7zM1299.5 1089.5c.3.3-2.7 3.8-8.3 8.5-5.6 4.7-14.1 10.5-24.4 15.1-4 1.8-8 3.3-11.8 4.5-1.9.6-3.7 1.1-5.5 1.6-1.8.4-3.5.9-5.1 1.2-1.7.3-3.1.7-4.7.8-1.5.1-3 .1-4.3-.3-1.3-.3-2.5-.9-3.3-1.8-.8-.9-1.1-1.8-1.2-2.6l-.1-.7h.6c1.6 0 2.4.2 2.4.4s-.8.5-2.3.8l.5-.7c.2.6.6 1.2 1.2 1.7s1.5.8 2.6 1c1.1.2 2.3.1 3.7-.1 1.3-.2 2.8-.7 4.4-1.1 1.6-.4 3.2-.9 4.9-1.4 1.7-.6 3.5-1.1 5.3-1.8 3.7-1.3 7.5-2.8 11.4-4.6 10-4.5 18.4-9.8 24.3-14 5.8-4 9.3-6.8 9.7-6.5zM1228.6 629c.2.1-.4 1.9-2.3 4.7-1.9 2.8-5.4 6.4-10.5 9.7-5.1 3.3-11.7 6.2-19.4 8.3-7.7 2.1-16.5 3.3-25.7 2.8s-17.9-2.7-25.2-6.1c-7.3-3.4-13.1-7.7-17.5-11.9-4.3-4.2-7.1-8.2-8.8-11.1-.4-.7-.8-1.4-1.1-1.9-.3-.6-.5-1.1-.7-1.5-.3-.8-.5-1.3-.4-1.3s.4.3.9 1c.3.3.6.8.9 1.3.4.5.8 1.1 1.3 1.7 2 2.6 5 6.3 9.3 10.1 4.4 3.8 10.1 7.8 17.1 10.9 7 3.1 15.3 5.1 24.1 5.6s17.3-.6 24.7-2.5c7.5-1.9 14-4.4 19-7.4 5-2.9 8.5-6.1 10.7-8.5 2.4-2.4 3.4-4 3.6-3.9z"></path><path stroke="#000" stroke-miterlimit="10" d="M1222.6 618.6c.3.3-2.2 3.2-7 6.9s-12 8.2-20.7 11.4c-4.4 1.6-8.6 2.8-12.6 3.6-4 .7-7.8.8-10.9.1-3.1-.7-5.4-2-6.7-3.3-.3-.3-.6-.6-.8-.9-.2-.3-.4-.5-.5-.7-.2-.4-.3-.6-.2-.7.1-.1.3 0 .7.3.2.1.4.3.7.5l.9.6c1.3.8 3.5 1.7 6.3 2 2.8.3 6.2.1 10-.8 3.7-.9 7.9-2.2 12-3.7 8.4-3.2 15.6-7.1 20.6-10.3 4.9-3.2 7.9-5.4 8.2-5zM1097 452.7c-.1-.1.3-.4.9-.9.6-.5 1.6-1.1 2.8-2 2.4-1.7 5.7-4.4 9.5-8.1 3.8-3.7 7.9-8.4 12.3-13.9 4.5-5.4 9.1-11.6 14.7-17.7s11.6-11.2 17.7-15.1c3.1-1.9 6.2-3.4 9.2-4.6.8-.3 1.5-.5 2.3-.8.4-.1.7-.2 1.1-.4.4-.1.7-.2 1.1-.3.7-.2 1.4-.4 2.1-.5l2.1-.3c2.7-.4 5.2-.4 7.4-.3 2.2.1 4.1.5 5.5 1.2 1.5.7 2.4 1.6 2.8 2.3.4.7.5 1.2.4 1.2-.2.2-1-1.5-3.7-2.3-1.3-.4-3.1-.7-5.1-.6-2.1.1-4.4.2-6.9.8-.6.1-1.3.3-1.9.4-.6.2-1.3.4-2 .6-.3.1-.7.2-1 .3-.3.1-.7.3-1 .4-.7.3-1.4.5-2.1.8-2.8 1.2-5.7 2.7-8.6 4.6-5.8 3.8-11.5 8.8-16.9 14.7-5.4 5.9-10.2 12-14.8 17.4-4.6 5.4-9 10.1-13.1 13.6-4 3.6-7.7 6-10.4 7.5-1.3.8-2.4 1.2-3.1 1.5-.8.5-1.2.6-1.3.5zM1096.8 447.8c-.8.5-11.4-17-29-34.7-4.4-4.5-8.8-8.4-12.8-12.1-2-1.9-3.9-3.7-5.6-5.5-1.7-1.8-3.2-3.5-4.5-5.2-2.6-3.3-4.2-6.4-5.1-8.6-.5-1.1-.7-2-.8-2.6-.1-.6-.2-.9-.1-1 .5-.2 2.3 4.6 7.7 10.6 2.7 3 6.2 6.3 10.3 9.9 4.1 3.5 8.7 7.5 13.1 12.1 8.9 9 15.9 18.2 20.4 25.2 4.6 7.1 6.8 11.7 6.4 11.9zM1037.8 429.2c-.8.4-5.7-7.3-11.6-16.9-5.9-9.6-10.6-17.5-9.9-18 .7-.5 6.7 6.6 12.7 16.3 5.9 9.7 9.5 18.2 8.8 18.6zM1029.7 464.4c-.1.4-3.8.3-9.9-1.2-1.5-.4-3.1-.9-4.9-1.5-1.7-.6-3.5-1.4-5.4-2.2-1.9-.8-3.8-1.7-5.9-2.6-2-1-4.2-1.9-6.3-3.6l1-1.2-.6.7-.3.3-.2.2-.1-.1-.2-.1-.4-.3-.7-.5c-.5-.3-1-.6-1.6-.9-1.6-.9-3.3-1.6-4.9-1.9-.2 0-.5-.1-.7.1-.1.1 0 .2 0 .3 0 .2 0 .1.2.6 1.1 3.2 2.9 5.8 5 7.7l-1.6 2.1c-2.3-1.6-3.7-3.9-4.2-6-.6-2.1-.6-4-.3-5.5s.9-2.6 1.3-3.2c.5-.6.8-.9.9-.8.3.2-.6 1.6-.7 4.2 0 1.3.1 2.9.8 4.6.7 1.7 1.9 3.4 3.7 4.5l-1.6 2.1c-2.5-2.1-4.8-5-6.2-8.7-.1-.3-.4-1.3-.6-2-.1-.8 0-1.5.3-2.1.4-.6 1-1.1 1.7-1.2.7-.2 1.6 0 2.4 0 2.2.4 4.2 1.2 6.1 2.2.6.3 1.2.7 1.8 1.1.3.2.6.4.8.6l.4.3.2.2.1.1.1.1.2.1-.1-.1c1.6 1.3 3.7 2.3 5.6 3.3 2 1 3.9 1.9 5.7 2.8 1.8.9 3.6 1.7 5.2 2.4s3.1 1.3 4.5 1.8c5.9 2 9.5 2.8 9.4 3.3z"></path><path stroke="#000" stroke-miterlimit="10" d="M1044.7 448.9c0 .2-.7.6-2.3 1-1.6.3-3.9.4-6.7 0-2.8-.4-6-1.4-9.5-2.5-3.4-1.1-7.2-2.1-11.2-3-4-.9-7.9-1.5-11.5-2-1.8-.2-3.3-.4-4.5 0-1.1.3-1.8 1.2-2.1 2.2-.6 2.2.5 4.2 1.2 5.5.7 1.3 1.1 2.1.9 2.3-.2.1-.9-.4-2-1.5-.5-.6-1.2-1.4-1.7-2.5s-.9-2.5-.7-4.2c.1-.8.4-1.7 1-2.5s1.5-1.5 2.4-1.8c1.9-.7 3.9-.6 5.7-.4 3.7.3 7.7.9 11.8 1.8 4.2.9 8 2.1 11.5 3.4 3.4 1.3 6.4 2.4 9 3.1 2.6.7 4.7.9 6.2 1 1.6-.1 2.5-.1 2.5.1z"></path><path stroke="#000" stroke-miterlimit="10" d="M1070.1 446.2c-.3.4-3.6-1.6-9.1-4.4-5.5-2.9-13.2-6.6-22.1-9.6-2.2-.7-4.3-1.2-6.2-1.2-1 0-1.8.2-2.7.6-.8.3-1.6.8-2.2 1.4-1.2 1.2-1.7 2.6-1.4 4 .3 1.4 1.2 2.8 2.1 3.9 1.9 2.3 3.9 3.8 5.2 4.9 1.4 1 2.2 1.6 2.1 1.8-.1.2-1.1 0-2.7-.7-1.6-.8-3.9-2.1-6.3-4.4-1.2-1.2-2.4-2.7-3-4.8-.3-1.1-.3-2.3 0-3.5.3-1.2 1-2.3 1.9-3.2.9-.9 1.9-1.6 3.1-2.1 1.2-.5 2.5-.8 3.8-.9 2.6-.1 5.1.5 7.4 1.2 9.2 3.2 16.9 7.3 22.2 10.7 5.2 3.3 8.1 5.9 7.9 6.3zM1063.7 483.4c-.1.5-4 .3-10.4-.1s-15.3-1-25.1-2.9c-4.9-1-9.5-2.3-13.5-3.8s-7.6-3.3-10.3-5.1c-5.6-3.5-8.2-6.7-7.9-7 .3-.4 3.4 2.1 9.1 5 2.8 1.4 6.3 2.9 10.2 4.2 3.9 1.3 8.4 2.5 13.1 3.4 9.5 1.9 18.3 2.8 24.7 3.8 6.3 1.1 10.2 2.1 10.1 2.5zM1000.7 380.6c-.1.4-6.5-.2-16.6-2.9-5-1.4-10.9-3.3-17.3-5.9-1.6-.6-3.2-1.4-4.8-2.1-.8-.3-1.5-.5-2-.5s-.8.2-1.2.6c-.3.4-.6 1-.6 1.6 0 .6.2 1.3.5 2 .7 1.4 1.9 2.9 3.1 4.3 5.1 5.6 11.7 9.1 17.9 11.2 6.3 2.1 12.4 2.9 17.5 3.3 2.6.2 4.9.3 6.9.5 2.1.1 3.9.4 5.3.8 2.9.8 4.2 1.9 4.1 2-.1.2-1.6-.5-4.4-.8-1.4-.2-3.1-.2-5.1-.2-2 0-4.4.1-7 0-5.2-.2-11.5-.7-18.2-2.8-3.4-1-6.8-2.5-10.1-4.4-3.3-1.9-6.5-4.4-9.3-7.5-.7-.8-1.3-1.6-2-2.4-.6-.8-1.2-1.7-1.7-2.8-.5-1-.8-2.2-.8-3.5.1-1.3.5-2.5 1.3-3.5.4-.5 1-1 1.6-1.3.6-.3 1.4-.4 2-.4 1.3 0 2.4.4 3.2.8 1.7.8 3.2 1.5 4.8 2.2 6.2 2.7 11.9 4.8 16.8 6.4 9.9 3.4 16.2 4.8 16.1 5.3zM1009.2 362.9c.1.2-.7.7-2.3 1.1-1.6.4-4 .7-6.9.4-2.9-.2-6.3-1-9.9-2.2-3.6-1.2-7.3-3-11.2-4.6-1.9-.8-3.8-1.6-5.7-2.2-1.8-.7-3.4-.9-4.4-.3-1.1.5-1.8 1.9-2 3.2-.1.7-.1 1.3-.1 2 .1.6.3 1.2.5 1.8 1 2.3 2.7 3.8 3.8 5 1.1 1.1 1.7 1.8 1.5 2-.1.2-1-.1-2.3-1-.7-.4-1.5-1-2.4-1.8-.9-.8-1.8-1.8-2.6-3.1-.4-.7-.8-1.5-.9-2.4-.2-.9-.3-1.8-.2-2.8.1-1 .4-2 .9-2.9.5-1 1.3-1.9 2.4-2.5 1.1-.6 2.4-.9 3.6-.8 1.2.1 2.3.4 3.3.7 2 .6 4 1.4 6 2.3 4 1.7 7.6 3.5 11 4.8 3.4 1.4 6.5 2.3 9.1 2.8 5.3.7 8.7 0 8.8.5z"></path><path stroke="#000" stroke-miterlimit="10" d="M1031.2 372.3c-.2.1-.7-.8-1.3-2.4-.7-1.5-1.6-3.8-3.2-6.2-1.6-2.4-4.3-4.5-7.8-6.1-1.7-.8-3.7-1.6-5.7-2.5-2-.8-4.1-1.7-6.3-2.6l-6.3-2.7c-1-.4-2-.9-3-1.3s-1.8-.8-2.6-.9c-.8-.2-1.3-.1-1.7.2-.4.2-.6.6-.6 1.3 0 .6.1 1.4.4 2 .2.7.6 1.4.9 2 1.4 2.6 2.9 4.4 4 5.7 1.1 1.3 1.8 1.9 1.6 2.1-.1.2-1-.2-2.5-1.2-1.4-1-3.4-2.8-5.1-5.4-.8-1.3-1.9-2.9-2-5.2 0-.6 0-1.2.3-1.9.2-.6.7-1.3 1.3-1.7.6-.5 1.3-.8 2-.9.7-.1 1.4-.1 2 0 1.2.2 2.3.6 3.3 1l3 1.2c2 .8 4.1 1.7 6.3 2.6l6.3 2.7c2 .9 4 1.7 5.8 2.7 1.8 1 3.6 2.1 5 3.4 1.4 1.3 2.6 2.7 3.4 4.2 1.6 2.9 2.1 5.4 2.4 7.1.3 1.8.3 2.7.1 2.8zM1000.6 377c-.2.4-2.4-.1-5.8-1.2-3.4-1.2-8.1-2.8-13.1-5.3-5-2.4-9.3-5.5-11.8-8.3-2.5-2.8-3.4-5-3.1-5.2.4-.3 1.9 1.4 4.6 3.5 2.7 2.2 6.8 4.7 11.6 7.1 4.8 2.4 9.4 4.4 12.6 6.1 3.3 1.7 5.2 2.9 5 3.3zM1029.8 454.2c-.1.4-1.8.6-4.7.3-2.8-.3-6.7-1.3-10.7-3-4-1.8-7.3-4-9.4-5.8-2.2-1.8-3.2-3.3-2.9-3.6.6-.7 6.2 3.2 13.7 6.4 7.5 3.3 14.1 4.8 14 5.7z"></path><ellipse cx="1125.4" cy="488.3" stroke="#000" stroke-miterlimit="10" rx="5.4" ry="1.6" transform="rotate(-23.35 1125.306 488.301)"></ellipse><path stroke="#000" stroke-miterlimit="10" d="M1229.8 393.8c.3.2-.9 3.4-4.4 7.5-3.5 4.1-9.4 9.1-17.5 11.6-2 .6-4.2.9-6.3.8-2.1-.1-4.2-.6-5.9-1.6-1.7-1-3.1-2.5-4-4-.9-1.5-1.3-3.1-1.4-4.5-.3-2.9.6-5.2 1.4-6.5.9-1.3 1.7-1.8 1.8-1.6.2.2-.2.9-.7 2.2-.4 1.3-.8 3.3-.3 5.6.3 1.1.7 2.4 1.4 3.5.8 1.1 1.8 2.1 3.1 2.7 2.6 1.4 6.2 1.3 9.8.3 1.8-.5 3.5-1.2 5.1-2 1.6-.8 3.2-1.7 4.6-2.6 2.8-1.8 5.2-3.7 7-5.5 4-3.5 5.8-6.1 6.3-5.9zM843.5 289.7c-.2 0-.6-2-1.1-5.8-.5-3.7-1-9.2-1.6-15.9-1.1-13.4-2.3-32-2.8-52.6-.6-20.6-.5-39.2-.1-52.6.2-6.7.4-12.2.7-15.9.3-3.8.5-5.8.7-5.8.5 0 .7 8.3.9 21.8.2 13.5.5 32 1 52.5.6 20.5 1.3 39.1 1.9 52.5.6 13.4.8 21.7.4 21.8zM1060.3 134.8c0 .1-.8 0-2.2-.2-.7-.1-1.6-.3-2.6-.5-.5-.1-1.1-.2-1.7-.3-.6-.1-1.2-.2-1.9-.3-1.4-.2-2.9-.5-4.5-.8-1.7-.2-3.5-.4-5.4-.7-3.9-.5-8.3-.8-13.2-1.1-9.8-.5-21.6-.2-34.6 1-13 1.1-27.2 3.1-42.2 5.1-15 2-29.3 3.8-42.5 4.6-13.1.8-25.1.7-35-.4-5-.5-9.4-1.2-13.3-1.9-1.9-.4-3.7-.8-5.4-1.1-1.6-.4-3.1-.8-4.5-1.2-.7-.2-1.3-.4-1.9-.5-.6-.2-1.1-.4-1.6-.6-1-.4-1.9-.7-2.6-.9-1.4-.5-2.1-.8-2-.9 0-.1.8 0 2.2.3.7.2 1.6.4 2.6.6.5.1 1.1.3 1.7.4.6.1 1.2.2 1.9.4 1.4.3 2.9.6 4.5.9 1.7.3 3.5.6 5.4.9 3.9.6 8.3 1.1 13.2 1.4 9.8.8 21.6.6 34.6-.3 13-1 27.3-2.8 42.2-4.9 15-2 29.3-3.9 42.4-4.9 13.1-1 25-1.1 35-.3 5 .4 9.5.9 13.4 1.6 2 .3 3.8.6 5.4 1 1.7.4 3.2.7 4.5 1 .7.2 1.3.3 1.9.5.6.2 1.1.3 1.7.5 1 .3 1.9.6 2.6.8 1.2.4 2 .7 1.9.8zM1064.1 253.2c-.4 0-1.2-6.6-2-17.4-.8-10.8-1.5-25.6-1.7-42.1-.2-16.5.1-31.3.6-42.1s1.1-17.4 1.6-17.4.6 6.7.7 17.4c.1 10.8.2 25.6.3 42 .3 16.4.5 31.3.7 42 .2 10.9.2 17.5-.2 17.6zM1033.1 282.2c0 .2-2.4.8-6.8 1.5-2.2.4-4.9.8-8.1 1.3-3.2.5-6.8 1-10.7 1.5-15.9 2.1-38 4.4-62.5 5.8-24.5 1.5-46.7 1.8-62.7 1.7-4-.1-7.6-.1-10.8-.2-3.2-.1-6.1-.5-8.3-1.3-2.2-.8-3.7-2.1-4.4-3.1-.7-1-.8-1.7-.8-1.7.1-.1.5.5 1.3 1.3s2.2 1.7 4.3 2.3c2.1.6 4.7.8 7.9.7 3.2-.1 6.8-.2 10.8-.3 16-.4 38.1-1.2 62.5-2.6 24.4-1.4 46.5-3.4 62.4-4.9 8-.7 14.4-1.3 18.9-1.7 4.4-.4 6.9-.5 7-.3zM1059.2 263.5c.1 0 .2.2.4.7.1.2.1.5.2.8.1.3.2.7.3 1.1.5 1.7 1.4 4 3.2 6.5 1.7 2.5 4.3 5.3 7.3 8.1.8.7 1.6 1.4 2.4 2.2.4.4.8.7 1.3 1.2s1 1.1 1.2 2c.3.9.3 1.9-.1 2.8-.4.9-.9 1.5-1.5 2-1.2 1-2.5 1.5-3.9 1.9-5 1.2-9.9 1.4-14.2.8-4.4-.6-8.2-1.7-11.1-3.1-3-1.4-5.2-2.8-6.7-4-1.4-1.2-2.1-1.9-1.9-2.1.3-.4 3.6 1.9 9.5 4 2.9 1 6.5 1.9 10.6 2.3 4.1.4 8.6.1 13.1-1 1-.3 2-.7 2.6-1.2.3-.3.5-.5.6-.7.1-.2.1-.4 0-.6-.1-.5-.8-1.2-1.6-2s-1.6-1.5-2.3-2.3c-3-3.1-5.5-6.1-7.2-9-1.7-2.9-2.4-5.6-2.5-7.5v-1.2c0-.4.1-.7.1-.9 0-.5.1-.8.2-.8z"></path><path fill="none" stroke="#000" stroke-miterlimit="10" stroke-width="2" d="m907 191 30.9-4.3 14-27.8 13.6 28.1 30.8 4.7-22.5 21.6 5.1 30.8-27.5-14.8-27.7 14.3 5.5-30.7z" opacity=".4"></path><path stroke="#000" stroke-miterlimit="10" d="M1093.6 502.1c-.7-.6 2.4-4.8 4.6-10.6 2.3-5.8 2.8-11 3.7-11 .4 0 .9 1.3.9 3.6.1 2.2-.4 5.4-1.6 8.6-1.2 3.2-3 5.8-4.6 7.4-1.4 1.6-2.7 2.3-3 2zM1066.2 410.1c.3.3-.4 1.8-2.1 3.9-1.7 2.1-4.4 4.7-7.8 6.9-3.4 2.3-6.9 3.7-9.5 4.4-2.6.7-4.3.8-4.4.3-.3-.9 5.7-3.2 12.1-7.5 6.5-4.1 11-8.6 11.7-8zM930.9 214.6c-.7.6-6.5-4.4-13.5-10.8-6.9-6.4-12.4-11.9-11.8-12.6.6-.7 7 3.7 14 10.2 7.1 6.5 12 12.6 11.3 13.2zM924.2 246.5c-.9 0-1.3-7.4 0-16.3s3.8-15.8 4.6-15.6c.9.2-.2 7.4-1.4 16.1-1.3 8.7-2.3 15.8-3.2 15.8z"></path><path stroke="#000" stroke-miterlimit="10" d="M950.4 229.1c.5.8-5.2 5.1-12.6 9.7-3.7 2.3-7.2 4.2-9.7 5.4-1.3.6-2.4 1.1-3.1 1.3-.2.1-.3.1-.4 0-.1-.1-.2-.1-.2-.1-.2.1-.1.1-.1 0v-.1l.1.1s0-.1.1-.1h.1s.1.1.1.2c0 .2-.1.3-.4.4-.1 0-.2 0-.3-.1l-.1-.1v-.1c-.1-.2 0-.4.1-.5.1-.3.4-.5.5-.6.6-.6 1.5-1.3 2.6-2.2 2.3-1.7 5.5-4 9.2-6.3 7.2-4.6 13.6-7.7 14.1-6.9z"></path><path stroke="#000" stroke-miterlimit="10" d="M980.2 244.1c-.4.8-7.7-1.7-16.4-5.7-8.7-3.9-15.5-7.9-15-8.7.4-.8 7.7 1.8 16.4 5.8 8.7 3.9 15.4 7.7 15 8.6z"></path><path stroke="#000" stroke-miterlimit="10" d="M978.9 243.7c-.9 0-2-6.7-3.3-15-1.3-8.3-2.5-15-1.6-15.3.8-.2 3.4 6.3 4.8 14.8 1.4 8.4 1 15.4.1 15.5zM996.7 189.3c.7.5-3.2 7-9.7 13.6-6.5 6.6-12.9 10.7-13.4 10-.6-.7 4.8-5.8 11.1-12.2 6.3-6.5 11.3-11.9 12-11.4zM939.4 187.4c0 .5-1.9.9-5 1.4-3.1.5-7.4.9-12 1.4-4.7.5-8.9 1-12 1.4-3.1.4-5 .5-5.1.1-.1-.4 1.6-1.4 4.7-2.3 3-1 7.3-1.9 12.1-2.4s9.1-.6 12.3-.4c3 .1 5 .4 5 .8z"></path><path stroke="#000" stroke-miterlimit="10" d="M951.2 159.4c.8.5-2.6 6.6-6.4 14.3-3.8 7.6-6.7 14-7.5 13.7-.8-.3.7-7.3 4.6-15.2 3.9-7.9 8.6-13.3 9.3-12.8z"></path><path stroke="#000" stroke-miterlimit="10" d="M965.6 188.6c-.9.3-3.7-6.3-7.6-14.1-3.9-7.8-7.4-14.1-6.7-14.6.7-.5 5.6 5 9.6 13.1 4.1 8.1 5.6 15.4 4.7 15.6z"></path><path stroke="#000" stroke-miterlimit="10" d="M994 190.4c-.2.9-6.6-.2-14.5-.7-7.9-.6-14.4-.4-14.5-1.3-.1-.9 6.5-2.5 14.7-1.9 8.2.5 14.5 3.1 14.3 3.9z"></path><ellipse cx="984" cy="157.3" stroke="#000" stroke-miterlimit="10" rx="8.7" ry="1.6" transform="rotate(-47.943 984.03 157.308)"></ellipse><path stroke="#000" stroke-miterlimit="10" d="M1009.1 159.5c.5.7-2.5 3.9-7.3 6.4-4.8 2.5-9.2 3.2-9.4 2.4-.3-.9 3.4-2.9 7.9-5.2 4.5-2.4 8.3-4.3 8.8-3.6z"></path><ellipse cx="1071.3" cy="165.7" stroke="#000" stroke-miterlimit="10" rx="20.3" ry="1.6" transform="rotate(85.434 1071.31 165.69)"></ellipse><path stroke="#000" stroke-miterlimit="10" d="M1087.3 698c-.4 0-.6-4.8-.1-12.5.3-3.9.8-8.4 1.5-13.5.8-5.1 1.8-10.6 3.1-16.4 1.3-5.8 2.8-11.2 4.3-16.1 1.5-4.9 3.1-9.2 4.5-12.8 2.9-7.2 5.1-11.4 5.5-11.3.9.4-6 18.1-11.2 40.9-5.2 22.8-6.6 41.8-7.6 41.7z"></path><ellipse cx="1256.8" cy="803.6" stroke="#000" stroke-miterlimit="10" rx="17.3" ry="1.6" transform="rotate(85.518 1256.753 803.573) scale(.99996)"></ellipse><path stroke="#000" stroke-miterlimit="10" d="M1101.6 1060.5c-.5-.7 3.1-4.4 8.7-7.2s10.8-3.5 11-2.6c.3.9-4.2 2.9-9.5 5.6-5.4 2.6-9.7 5-10.2 4.2zM1036.6 354.6c-.5.2-1.6-1.7-3.8-4.3-.3-.3-.6-.7-.9-1-.3-.4-.7-.7-1-1.1-.7-.7-1.5-1.5-2.3-2.2-1.7-1.5-3.7-3-5.9-4.3-2.2-1.3-4.5-2.4-6.6-3.2-1.1-.4-2.1-.8-3-1-.5-.1-.9-.3-1.4-.4-.5-.1-.9-.2-1.3-.3-3.4-.7-5.6-.9-5.6-1.4 0-.4 2.2-1 5.9-.9.5 0 .9.1 1.4.1.5 0 1 .2 1.6.2 1.1.2 2.2.5 3.4.8 2.3.7 4.8 1.8 7.3 3.2 2.4 1.5 4.5 3.2 6.2 5 .8.9 1.6 1.7 2.3 2.6.3.4.7.8.9 1.3.3.4.5.8.8 1.2 1.9 3.3 2.3 5.6 2 5.7zM1122.9 195.5c.8-.4 3.5 3.7 5.4 9.4 1.9 5.6 2.2 10.5 1.3 10.7-.9.2-2.6-4.2-4.4-9.7-1.8-5.5-3.1-10-2.3-10.4zM1109.8 219.5c.1-.4.9-.7 2.2-.5 1.3.1 3 .7 4.7 1.8 1.7 1.1 2.9 2.4 3.5 3.6.7 1.1.8 2 .4 2.3-.8.5-2.9-1.3-5.8-3.1-2.6-1.9-5.2-3.2-5-4.1zM1104.8 245.6c-.6-.7 1.2-3.1 4.5-4.6 3.3-1.5 6.3-1.3 6.4-.5.2.9-2.2 2.1-5.1 3.4-2.7 1.3-5.2 2.4-5.8 1.7z"></path></g></svg>